<mxfile host="app.diagrams.net" modified="2023-10-23T20:25:47.530Z" agent="Mozilla/5.0 (Windows NT 10.0; Win64; x64) AppleWebKit/537.36 (KHTML, like Gecko) Chrome/120.0.0.0 Safari/537.36 Edg/120.0.0.0" etag="GSfg57iObVw2fFezwZ-N" version="22.0.6" type="github">
  <diagram name="Page-1" id="e56a1550-8fbb-45ad-956c-1786394a9013">
    <mxGraphModel dx="3081" dy="673" grid="1" gridSize="10" guides="1" tooltips="1" connect="1" arrows="1" fold="1" page="1" pageScale="1.1" pageWidth="1100" pageHeight="850" background="#e9e2c8" math="0" shadow="0">
      <root>
        <mxCell id="0" />
        <mxCell id="1" parent="0" />
        <mxCell id="5XdCu-Sr5xr-vJQQU0_O-6" style="rounded=0;orthogonalLoop=1;jettySize=auto;html=1;startArrow=ERoneToMany;startFill=0;strokeWidth=2;endArrow=ERmandOne;endFill=0;editable=1;movable=1;resizable=1;rotatable=1;deletable=1;locked=0;connectable=1;comic=0;enumerate=0;fontStyle=1;edgeStyle=orthogonalEdgeStyle;strokeColor=#990000;fontColor=#990000;" parent="1" source="aJEdRUJ3gJoqMp5k8vDi-50" target="XRP2DXV7LQ1C8lFrC8NO-67" edge="1">
          <mxGeometry relative="1" as="geometry">
            <Array as="points" />
            <mxPoint x="-1675" y="148" as="sourcePoint" />
          </mxGeometry>
        </mxCell>
        <mxCell id="5XdCu-Sr5xr-vJQQU0_O-42" value="consists of" style="edgeLabel;html=1;align=center;verticalAlign=middle;resizable=1;points=[];editable=1;movable=1;rotatable=1;deletable=1;locked=0;connectable=1;comic=0;enumerate=0;fontStyle=1;fontColor=#990000;labelBackgroundColor=#E9E2C8;" parent="5XdCu-Sr5xr-vJQQU0_O-6" vertex="1" connectable="0">
          <mxGeometry relative="1" as="geometry">
            <mxPoint as="offset" />
          </mxGeometry>
        </mxCell>
        <mxCell id="5XdCu-Sr5xr-vJQQU0_O-7" style="rounded=0;orthogonalLoop=1;jettySize=auto;html=1;endArrow=ERzeroToMany;endFill=0;startArrow=ERmandOne;startFill=0;editable=1;movable=1;resizable=1;rotatable=1;deletable=1;locked=0;connectable=1;comic=0;enumerate=0;fontStyle=1;strokeColor=#990000;fontColor=#990000;strokeWidth=2;edgeStyle=orthogonalEdgeStyle;" parent="1" target="XRP2DXV7LQ1C8lFrC8NO-214" edge="1" source="aJEdRUJ3gJoqMp5k8vDi-50">
          <mxGeometry relative="1" as="geometry">
            <mxPoint x="-1649.979591836735" y="208" as="sourcePoint" />
            <Array as="points">
              <mxPoint x="-1620" y="259" />
              <mxPoint x="-1623" y="259" />
            </Array>
          </mxGeometry>
        </mxCell>
        <mxCell id="5XdCu-Sr5xr-vJQQU0_O-13" value="has" style="edgeLabel;html=1;align=center;verticalAlign=middle;resizable=1;points=[];editable=1;movable=1;rotatable=1;deletable=1;locked=0;connectable=1;comic=0;enumerate=0;fontStyle=1;fontColor=#990000;labelBackgroundColor=#E9E2C8;fontSize=11;" parent="5XdCu-Sr5xr-vJQQU0_O-7" vertex="1" connectable="0">
          <mxGeometry relative="1" as="geometry">
            <mxPoint y="2" as="offset" />
          </mxGeometry>
        </mxCell>
        <mxCell id="XRP2DXV7LQ1C8lFrC8NO-150" style="rounded=0;orthogonalLoop=1;jettySize=auto;html=1;endArrow=none;endFill=0;entryX=0.5;entryY=0;entryDx=0;entryDy=0;editable=1;movable=1;resizable=1;rotatable=1;deletable=1;locked=0;connectable=1;comic=0;enumerate=0;edgeStyle=orthogonalEdgeStyle;fontStyle=1" parent="1" source="XRP2DXV7LQ1C8lFrC8NO-67" target="XRP2DXV7LQ1C8lFrC8NO-143" edge="1">
          <mxGeometry relative="1" as="geometry">
            <mxPoint x="-495" y="528" as="sourcePoint" />
            <mxPoint x="-615" y="418" as="targetPoint" />
            <Array as="points">
              <mxPoint x="-2195" y="278" />
              <mxPoint x="-2195" y="278" />
            </Array>
          </mxGeometry>
        </mxCell>
        <mxCell id="XRP2DXV7LQ1C8lFrC8NO-151" style="rounded=0;orthogonalLoop=1;jettySize=auto;html=1;endArrow=none;endFill=0;entryX=0.5;entryY=1;entryDx=0;entryDy=0;editable=1;movable=1;resizable=1;rotatable=1;deletable=1;locked=0;connectable=1;comic=0;enumerate=0;edgeStyle=orthogonalEdgeStyle;fontStyle=1" parent="1" edge="1">
          <mxGeometry relative="1" as="geometry">
            <mxPoint x="-2195" y="328" as="targetPoint" />
            <Array as="points">
              <mxPoint x="-2015" y="348" />
              <mxPoint x="-2195" y="348" />
            </Array>
            <mxPoint x="-2015" y="378" as="sourcePoint" />
          </mxGeometry>
        </mxCell>
        <mxCell id="XRP2DXV7LQ1C8lFrC8NO-130" value="&lt;span style=&quot;font-weight: normal;&quot;&gt;&lt;font color=&quot;#000000&quot;&gt;pick_up&lt;/font&gt;&lt;/span&gt;" style="swimlane;html=1;fontStyle=1;childLayout=stackLayout;horizontal=1;startSize=30;fillColor=#a0a0a0;horizontalStack=0;resizeParent=1;resizeLast=0;collapsible=1;marginBottom=0;swimlaneFillColor=#ffffff;align=center;rounded=0;shadow=0;comic=0;labelBackgroundColor=none;strokeWidth=2;fontFamily=Verdana;fontSize=14;editable=1;movable=1;resizable=1;rotatable=1;deletable=1;locked=0;connectable=1;enumerate=0;strokeColor=#007FFF;fontColor=#ffffff;verticalAlign=middle;spacing=2;spacingBottom=5;" parent="1" vertex="1">
          <mxGeometry x="-2235" y="368" width="140" height="70" as="geometry" />
        </mxCell>
        <mxCell id="XRP2DXV7LQ1C8lFrC8NO-131" value="order_id" style="shape=partialRectangle;top=0;left=0;right=0;bottom=1;html=1;align=left;verticalAlign=middle;fillColor=none;spacingLeft=60;spacingRight=4;whiteSpace=wrap;overflow=hidden;rotatable=1;points=[[0,0.5],[1,0.5]];portConstraint=eastwest;dropTarget=0;fontStyle=5;editable=1;movable=1;resizable=1;deletable=1;locked=0;connectable=1;comic=0;enumerate=0;" parent="XRP2DXV7LQ1C8lFrC8NO-130" vertex="1">
          <mxGeometry y="30" width="140" height="20" as="geometry" />
        </mxCell>
        <mxCell id="XRP2DXV7LQ1C8lFrC8NO-132" value="PK,FK1" style="shape=partialRectangle;fontStyle=1;top=0;left=0;bottom=0;html=1;fillColor=none;align=left;verticalAlign=middle;spacingLeft=4;spacingRight=4;whiteSpace=wrap;overflow=hidden;rotatable=1;points=[];portConstraint=eastwest;part=1;editable=1;movable=1;resizable=1;deletable=1;locked=0;connectable=1;comic=0;enumerate=0;" parent="XRP2DXV7LQ1C8lFrC8NO-131" vertex="1" connectable="0">
          <mxGeometry width="60" height="20" as="geometry" />
        </mxCell>
        <mxCell id="XRP2DXV7LQ1C8lFrC8NO-333" value="customer_id" style="shape=partialRectangle;top=0;left=0;right=0;bottom=0;html=1;align=left;verticalAlign=middle;fillColor=none;spacingLeft=60;spacingRight=4;whiteSpace=wrap;overflow=hidden;rotatable=1;points=[[0,0.5],[1,0.5]];portConstraint=eastwest;dropTarget=0;editable=1;movable=1;resizable=1;deletable=1;locked=0;connectable=1;comic=0;enumerate=0;fontStyle=1" parent="XRP2DXV7LQ1C8lFrC8NO-130" vertex="1">
          <mxGeometry y="50" width="140" height="20" as="geometry" />
        </mxCell>
        <mxCell id="XRP2DXV7LQ1C8lFrC8NO-334" value="&amp;nbsp; &amp;nbsp; &amp;nbsp; FK2" style="shape=partialRectangle;top=0;left=0;bottom=0;html=1;fillColor=none;align=left;verticalAlign=middle;spacingLeft=4;spacingRight=4;whiteSpace=wrap;overflow=hidden;rotatable=1;points=[];portConstraint=eastwest;part=1;editable=1;movable=1;resizable=1;deletable=1;locked=0;connectable=1;comic=0;enumerate=0;fontStyle=1" parent="XRP2DXV7LQ1C8lFrC8NO-333" vertex="1" connectable="0">
          <mxGeometry width="60" height="20" as="geometry" />
        </mxCell>
        <mxCell id="XRP2DXV7LQ1C8lFrC8NO-214" value="pizza_discount" style="swimlane;html=1;fontStyle=0;childLayout=stackLayout;horizontal=1;startSize=22;fillColor=#a0a0a0;horizontalStack=0;resizeParent=1;resizeLast=0;collapsible=1;marginBottom=0;swimlaneFillColor=#ffffff;align=center;rounded=0;shadow=0;comic=0;labelBackgroundColor=none;strokeWidth=2;fontFamily=Verdana;fontSize=14;editable=1;movable=1;resizable=1;rotatable=1;deletable=1;locked=0;connectable=1;enumerate=0;strokeColor=#007FFF;fontColor=#000000;spacing=2;spacingBottom=5;" parent="1" vertex="1">
          <mxGeometry x="-1718" y="318" width="190" height="112" as="geometry" />
        </mxCell>
        <mxCell id="XRP2DXV7LQ1C8lFrC8NO-215" value="pizza_purchase_id" style="shape=partialRectangle;top=0;left=0;right=0;bottom=0;html=1;align=left;verticalAlign=middle;fillColor=none;spacingLeft=60;spacingRight=4;whiteSpace=wrap;overflow=hidden;rotatable=1;points=[[0,0.5],[1,0.5]];portConstraint=eastwest;dropTarget=0;fontStyle=5;editable=1;movable=1;resizable=1;deletable=1;locked=0;connectable=1;comic=0;enumerate=0;" parent="XRP2DXV7LQ1C8lFrC8NO-214" vertex="1">
          <mxGeometry y="22" width="190" height="30" as="geometry" />
        </mxCell>
        <mxCell id="XRP2DXV7LQ1C8lFrC8NO-216" value="PK,FK1" style="shape=partialRectangle;fontStyle=1;top=0;left=0;bottom=0;html=1;fillColor=none;align=left;verticalAlign=middle;spacingLeft=4;spacingRight=4;whiteSpace=wrap;overflow=hidden;rotatable=1;points=[];portConstraint=eastwest;part=1;editable=1;movable=1;resizable=1;deletable=1;locked=0;connectable=1;comic=0;enumerate=0;" parent="XRP2DXV7LQ1C8lFrC8NO-215" vertex="1" connectable="0">
          <mxGeometry width="60" height="30" as="geometry" />
        </mxCell>
        <mxCell id="XRP2DXV7LQ1C8lFrC8NO-217" value="coupon_id" style="shape=partialRectangle;top=0;left=0;right=0;bottom=1;html=1;align=left;verticalAlign=middle;fillColor=none;spacingLeft=60;spacingRight=4;whiteSpace=wrap;overflow=hidden;rotatable=1;points=[[0,0.5],[1,0.5]];portConstraint=eastwest;dropTarget=0;fontStyle=5;editable=1;movable=1;resizable=1;deletable=1;locked=0;connectable=1;comic=0;enumerate=0;strokeColor=#007FFF;" parent="XRP2DXV7LQ1C8lFrC8NO-214" vertex="1">
          <mxGeometry y="52" width="190" height="30" as="geometry" />
        </mxCell>
        <mxCell id="XRP2DXV7LQ1C8lFrC8NO-218" value="PK,FK2" style="shape=partialRectangle;fontStyle=1;top=0;left=0;bottom=0;html=1;fillColor=none;align=left;verticalAlign=middle;spacingLeft=4;spacingRight=4;whiteSpace=wrap;overflow=hidden;rotatable=1;points=[];portConstraint=eastwest;part=1;editable=1;movable=1;resizable=1;deletable=1;locked=0;connectable=1;comic=0;enumerate=0;" parent="XRP2DXV7LQ1C8lFrC8NO-217" vertex="1" connectable="0">
          <mxGeometry width="60" height="30" as="geometry" />
        </mxCell>
        <mxCell id="aJEdRUJ3gJoqMp5k8vDi-8" value="dollars_saved" style="shape=partialRectangle;top=0;left=0;right=0;bottom=1;html=1;align=left;verticalAlign=middle;fillColor=none;spacingLeft=60;spacingRight=4;whiteSpace=wrap;overflow=hidden;rotatable=1;points=[[0,0.5],[1,0.5]];portConstraint=eastwest;dropTarget=0;fontStyle=1;editable=1;movable=1;resizable=1;deletable=1;locked=0;connectable=1;comic=0;enumerate=0;strokeColor=none;" parent="XRP2DXV7LQ1C8lFrC8NO-214" vertex="1">
          <mxGeometry y="82" width="190" height="30" as="geometry" />
        </mxCell>
        <mxCell id="aJEdRUJ3gJoqMp5k8vDi-9" value="" style="shape=partialRectangle;fontStyle=1;top=0;left=0;bottom=0;html=1;fillColor=none;align=left;verticalAlign=middle;spacingLeft=4;spacingRight=4;whiteSpace=wrap;overflow=hidden;rotatable=1;points=[];portConstraint=eastwest;part=1;editable=1;movable=1;resizable=1;deletable=1;locked=0;connectable=1;comic=0;enumerate=0;" parent="aJEdRUJ3gJoqMp5k8vDi-8" vertex="1" connectable="0">
          <mxGeometry width="60" height="30" as="geometry" />
        </mxCell>
        <mxCell id="XRP2DXV7LQ1C8lFrC8NO-238" value="pizza_topping_purchase" style="swimlane;html=1;fontStyle=0;childLayout=stackLayout;horizontal=1;startSize=30;fillColor=#a0a0a0;horizontalStack=0;resizeParent=1;resizeLast=0;collapsible=1;marginBottom=0;swimlaneFillColor=#ffffff;align=center;rounded=0;shadow=0;comic=0;labelBackgroundColor=none;strokeWidth=2;fontFamily=Verdana;fontSize=14;editable=1;movable=1;resizable=1;rotatable=1;deletable=1;locked=0;connectable=1;enumerate=0;strokeColor=#007FFF;fontColor=#000000;spacing=2;spacingBottom=5;" parent="1" vertex="1">
          <mxGeometry x="-1450" y="296" width="177.5" height="180" as="geometry">
            <mxRectangle x="40" y="420" width="140" height="30" as="alternateBounds" />
          </mxGeometry>
        </mxCell>
        <mxCell id="XRP2DXV7LQ1C8lFrC8NO-239" value="pizza_purchase_id" style="shape=partialRectangle;top=0;left=0;right=0;bottom=0;html=1;align=left;verticalAlign=middle;fillColor=none;spacingLeft=60;spacingRight=4;whiteSpace=wrap;overflow=hidden;rotatable=1;points=[[0,0.5],[1,0.5]];portConstraint=eastwest;dropTarget=0;fontStyle=5;editable=1;movable=1;resizable=1;deletable=1;locked=0;connectable=1;comic=0;enumerate=0;" parent="XRP2DXV7LQ1C8lFrC8NO-238" vertex="1">
          <mxGeometry y="30" width="177.5" height="30" as="geometry" />
        </mxCell>
        <mxCell id="XRP2DXV7LQ1C8lFrC8NO-240" value="PK,FK1" style="shape=partialRectangle;fontStyle=1;top=0;left=0;bottom=0;html=1;fillColor=none;align=left;verticalAlign=middle;spacingLeft=4;spacingRight=4;whiteSpace=wrap;overflow=hidden;rotatable=1;points=[];portConstraint=eastwest;part=1;editable=1;movable=1;resizable=1;deletable=1;locked=0;connectable=1;comic=0;enumerate=0;" parent="XRP2DXV7LQ1C8lFrC8NO-239" vertex="1" connectable="0">
          <mxGeometry width="60" height="30" as="geometry" />
        </mxCell>
        <mxCell id="XRP2DXV7LQ1C8lFrC8NO-241" value="topping_id" style="shape=partialRectangle;top=0;left=0;right=0;bottom=1;html=1;align=left;verticalAlign=middle;fillColor=none;spacingLeft=60;spacingRight=4;whiteSpace=wrap;overflow=hidden;rotatable=1;points=[[0,0.5],[1,0.5]];portConstraint=eastwest;dropTarget=0;fontStyle=5;editable=1;movable=1;resizable=1;deletable=1;locked=0;connectable=1;comic=0;enumerate=0;strokeColor=#007FFF;" parent="XRP2DXV7LQ1C8lFrC8NO-238" vertex="1">
          <mxGeometry y="60" width="177.5" height="30" as="geometry" />
        </mxCell>
        <mxCell id="XRP2DXV7LQ1C8lFrC8NO-242" value="PK,FK2" style="shape=partialRectangle;fontStyle=1;top=0;left=0;bottom=0;html=1;fillColor=none;align=left;verticalAlign=middle;spacingLeft=4;spacingRight=4;whiteSpace=wrap;overflow=hidden;rotatable=1;points=[];portConstraint=eastwest;part=1;editable=1;movable=1;resizable=1;deletable=1;locked=0;connectable=1;comic=0;enumerate=0;" parent="XRP2DXV7LQ1C8lFrC8NO-241" vertex="1" connectable="0">
          <mxGeometry width="60" height="30" as="geometry" />
        </mxCell>
        <mxCell id="XRP2DXV7LQ1C8lFrC8NO-243" value="is_double" style="shape=partialRectangle;top=0;left=0;right=0;bottom=0;html=1;align=left;verticalAlign=top;fillColor=none;spacingLeft=60;spacingRight=4;whiteSpace=wrap;overflow=hidden;rotatable=1;points=[[0,0.5],[1,0.5]];portConstraint=eastwest;dropTarget=0;editable=1;movable=1;resizable=1;deletable=1;locked=0;connectable=1;comic=0;enumerate=0;fontStyle=1" parent="XRP2DXV7LQ1C8lFrC8NO-238" vertex="1">
          <mxGeometry y="90" width="177.5" height="30" as="geometry" />
        </mxCell>
        <mxCell id="XRP2DXV7LQ1C8lFrC8NO-244" value="" style="shape=partialRectangle;top=0;left=0;bottom=0;html=1;fillColor=none;align=left;verticalAlign=top;spacingLeft=4;spacingRight=4;whiteSpace=wrap;overflow=hidden;rotatable=1;points=[];portConstraint=eastwest;part=1;editable=1;movable=1;resizable=1;deletable=1;locked=0;connectable=1;comic=0;enumerate=0;fontStyle=1" parent="XRP2DXV7LQ1C8lFrC8NO-243" vertex="1" connectable="0">
          <mxGeometry width="60" height="30" as="geometry" />
        </mxCell>
        <mxCell id="GkZeD6TET7VPJWkUDvar-1" value="business_cost" style="shape=partialRectangle;top=0;left=0;right=0;bottom=0;html=1;align=left;verticalAlign=top;fillColor=none;spacingLeft=60;spacingRight=4;whiteSpace=wrap;overflow=hidden;rotatable=1;points=[[0,0.5],[1,0.5]];portConstraint=eastwest;dropTarget=0;editable=1;movable=1;resizable=1;deletable=1;locked=0;connectable=1;comic=0;enumerate=0;fontStyle=1" vertex="1" parent="XRP2DXV7LQ1C8lFrC8NO-238">
          <mxGeometry y="120" width="177.5" height="30" as="geometry" />
        </mxCell>
        <mxCell id="GkZeD6TET7VPJWkUDvar-2" value="" style="shape=partialRectangle;top=0;left=0;bottom=0;html=1;fillColor=none;align=left;verticalAlign=top;spacingLeft=4;spacingRight=4;whiteSpace=wrap;overflow=hidden;rotatable=1;points=[];portConstraint=eastwest;part=1;editable=1;movable=1;resizable=1;deletable=1;locked=0;connectable=1;comic=0;enumerate=0;fontStyle=1" vertex="1" connectable="0" parent="GkZeD6TET7VPJWkUDvar-1">
          <mxGeometry width="60" height="30" as="geometry" />
        </mxCell>
        <mxCell id="GkZeD6TET7VPJWkUDvar-3" value="customer_price" style="shape=partialRectangle;top=0;left=0;right=0;bottom=0;html=1;align=left;verticalAlign=top;fillColor=none;spacingLeft=60;spacingRight=4;whiteSpace=wrap;overflow=hidden;rotatable=1;points=[[0,0.5],[1,0.5]];portConstraint=eastwest;dropTarget=0;editable=1;movable=1;resizable=1;deletable=1;locked=0;connectable=1;comic=0;enumerate=0;fontStyle=1" vertex="1" parent="XRP2DXV7LQ1C8lFrC8NO-238">
          <mxGeometry y="150" width="177.5" height="30" as="geometry" />
        </mxCell>
        <mxCell id="GkZeD6TET7VPJWkUDvar-4" value="" style="shape=partialRectangle;top=0;left=0;bottom=0;html=1;fillColor=none;align=left;verticalAlign=top;spacingLeft=4;spacingRight=4;whiteSpace=wrap;overflow=hidden;rotatable=1;points=[];portConstraint=eastwest;part=1;editable=1;movable=1;resizable=1;deletable=1;locked=0;connectable=1;comic=0;enumerate=0;fontStyle=1" vertex="1" connectable="0" parent="GkZeD6TET7VPJWkUDvar-3">
          <mxGeometry width="60" height="30" as="geometry" />
        </mxCell>
        <mxCell id="XRP2DXV7LQ1C8lFrC8NO-245" value="topping" style="swimlane;html=1;fontStyle=0;childLayout=stackLayout;horizontal=1;startSize=20;fillColor=#a0a0a0;horizontalStack=0;resizeParent=1;resizeLast=0;collapsible=1;marginBottom=0;swimlaneFillColor=#ffffff;align=center;rounded=0;shadow=0;comic=0;labelBackgroundColor=none;strokeWidth=2;fontFamily=Verdana;fontSize=14;editable=1;movable=1;resizable=1;rotatable=1;deletable=1;locked=0;connectable=1;enumerate=0;swimlaneLine=1;glass=0;gradientColor=none;container=1;strokeColor=#007FFF;fontColor=#000000;spacing=2;spacingBottom=5;" parent="1" vertex="1">
          <mxGeometry x="-1470" y="528" width="230" height="320" as="geometry" />
        </mxCell>
        <mxCell id="XRP2DXV7LQ1C8lFrC8NO-246" value="topping_id" style="shape=partialRectangle;top=0;left=0;right=0;bottom=1;html=1;align=left;verticalAlign=middle;fillColor=none;spacingLeft=34;spacingRight=4;whiteSpace=wrap;overflow=hidden;rotatable=1;points=[[0,0.5],[1,0.5]];portConstraint=eastwest;dropTarget=0;fontStyle=5;editable=1;movable=1;resizable=1;deletable=1;locked=0;connectable=1;comic=0;enumerate=0;strokeColor=#007FFF;" parent="XRP2DXV7LQ1C8lFrC8NO-245" vertex="1">
          <mxGeometry y="20" width="230" height="30" as="geometry" />
        </mxCell>
        <mxCell id="XRP2DXV7LQ1C8lFrC8NO-247" value="PK" style="shape=partialRectangle;top=0;left=0;bottom=0;html=1;fillColor=none;align=left;verticalAlign=middle;spacingLeft=4;spacingRight=4;whiteSpace=wrap;overflow=hidden;rotatable=1;points=[];portConstraint=eastwest;part=1;editable=1;movable=1;resizable=1;deletable=1;locked=0;connectable=1;comic=0;enumerate=0;fontStyle=1" parent="XRP2DXV7LQ1C8lFrC8NO-246" vertex="1" connectable="0">
          <mxGeometry width="30" height="30" as="geometry" />
        </mxCell>
        <mxCell id="XRP2DXV7LQ1C8lFrC8NO-248" value="name" style="shape=partialRectangle;top=0;left=0;right=0;bottom=0;html=1;align=left;verticalAlign=top;fillColor=none;spacingLeft=34;spacingRight=4;whiteSpace=wrap;overflow=hidden;rotatable=1;points=[[0,0.5],[1,0.5]];portConstraint=eastwest;dropTarget=0;editable=1;movable=1;resizable=1;deletable=1;locked=0;connectable=1;comic=0;enumerate=0;fontStyle=1" parent="XRP2DXV7LQ1C8lFrC8NO-245" vertex="1">
          <mxGeometry y="50" width="230" height="30" as="geometry" />
        </mxCell>
        <mxCell id="XRP2DXV7LQ1C8lFrC8NO-249" value="" style="shape=partialRectangle;top=0;left=0;bottom=0;html=1;fillColor=none;align=left;verticalAlign=top;spacingLeft=4;spacingRight=4;whiteSpace=wrap;overflow=hidden;rotatable=1;points=[];portConstraint=eastwest;part=1;editable=1;movable=1;resizable=1;deletable=1;locked=0;connectable=1;comic=0;enumerate=0;fontStyle=1" parent="XRP2DXV7LQ1C8lFrC8NO-248" vertex="1" connectable="0">
          <mxGeometry width="30" height="30" as="geometry" />
        </mxCell>
        <mxCell id="XRP2DXV7LQ1C8lFrC8NO-264" value="current_business_cost_per_unit" style="shape=partialRectangle;top=0;left=0;right=0;bottom=0;html=1;align=left;verticalAlign=top;fillColor=none;spacingLeft=34;spacingRight=4;whiteSpace=wrap;overflow=hidden;rotatable=1;points=[[0,0.5],[1,0.5]];portConstraint=eastwest;dropTarget=0;editable=1;movable=1;resizable=1;deletable=1;locked=0;connectable=1;comic=0;enumerate=0;fontStyle=1" parent="XRP2DXV7LQ1C8lFrC8NO-245" vertex="1">
          <mxGeometry y="80" width="230" height="30" as="geometry" />
        </mxCell>
        <mxCell id="XRP2DXV7LQ1C8lFrC8NO-265" value="" style="shape=partialRectangle;top=0;left=0;bottom=0;html=1;fillColor=none;align=left;verticalAlign=top;spacingLeft=4;spacingRight=4;whiteSpace=wrap;overflow=hidden;rotatable=1;points=[];portConstraint=eastwest;part=1;editable=1;movable=1;resizable=1;deletable=1;locked=0;connectable=1;comic=0;enumerate=0;fontStyle=1" parent="XRP2DXV7LQ1C8lFrC8NO-264" vertex="1" connectable="0">
          <mxGeometry width="30" height="30" as="geometry" />
        </mxCell>
        <mxCell id="XRP2DXV7LQ1C8lFrC8NO-266" value="current_price_per_unit" style="shape=partialRectangle;top=0;left=0;right=0;bottom=0;html=1;align=left;verticalAlign=top;fillColor=none;spacingLeft=34;spacingRight=4;whiteSpace=wrap;overflow=hidden;rotatable=1;points=[[0,0.5],[1,0.5]];portConstraint=eastwest;dropTarget=0;editable=1;movable=1;resizable=1;deletable=1;locked=0;connectable=1;comic=0;enumerate=0;fontStyle=1" parent="XRP2DXV7LQ1C8lFrC8NO-245" vertex="1">
          <mxGeometry y="110" width="230" height="30" as="geometry" />
        </mxCell>
        <mxCell id="XRP2DXV7LQ1C8lFrC8NO-267" value="" style="shape=partialRectangle;top=0;left=0;bottom=0;html=1;fillColor=none;align=left;verticalAlign=top;spacingLeft=4;spacingRight=4;whiteSpace=wrap;overflow=hidden;rotatable=1;points=[];portConstraint=eastwest;part=1;editable=1;movable=1;resizable=1;deletable=1;locked=0;connectable=1;comic=0;enumerate=0;fontStyle=1" parent="XRP2DXV7LQ1C8lFrC8NO-266" vertex="1" connectable="0">
          <mxGeometry width="30" height="30" as="geometry" />
        </mxCell>
        <mxCell id="XRP2DXV7LQ1C8lFrC8NO-250" value="units_in_personal" style="shape=partialRectangle;top=0;left=0;right=0;bottom=0;html=1;align=left;verticalAlign=top;fillColor=none;spacingLeft=34;spacingRight=4;whiteSpace=wrap;overflow=hidden;rotatable=1;points=[[0,0.5],[1,0.5]];portConstraint=eastwest;dropTarget=0;editable=1;movable=1;resizable=1;deletable=1;locked=0;connectable=1;comic=0;enumerate=0;fontStyle=1" parent="XRP2DXV7LQ1C8lFrC8NO-245" vertex="1">
          <mxGeometry y="140" width="230" height="30" as="geometry" />
        </mxCell>
        <mxCell id="XRP2DXV7LQ1C8lFrC8NO-251" value="" style="shape=partialRectangle;top=0;left=0;bottom=0;html=1;fillColor=none;align=left;verticalAlign=top;spacingLeft=4;spacingRight=4;whiteSpace=wrap;overflow=hidden;rotatable=1;points=[];portConstraint=eastwest;part=1;editable=1;movable=1;resizable=1;deletable=1;locked=0;connectable=1;comic=0;enumerate=0;fontStyle=1" parent="XRP2DXV7LQ1C8lFrC8NO-250" vertex="1" connectable="0">
          <mxGeometry width="30" height="30" as="geometry" />
        </mxCell>
        <mxCell id="XRP2DXV7LQ1C8lFrC8NO-256" value="units_in_medium" style="shape=partialRectangle;top=0;left=0;right=0;bottom=0;html=1;align=left;verticalAlign=top;fillColor=none;spacingLeft=34;spacingRight=4;whiteSpace=wrap;overflow=hidden;rotatable=1;points=[[0,0.5],[1,0.5]];portConstraint=eastwest;dropTarget=0;editable=1;movable=1;resizable=1;deletable=1;locked=0;connectable=1;comic=0;enumerate=0;fontStyle=1" parent="XRP2DXV7LQ1C8lFrC8NO-245" vertex="1">
          <mxGeometry y="170" width="230" height="30" as="geometry" />
        </mxCell>
        <mxCell id="XRP2DXV7LQ1C8lFrC8NO-257" value="" style="shape=partialRectangle;top=0;left=0;bottom=0;html=1;fillColor=none;align=left;verticalAlign=top;spacingLeft=4;spacingRight=4;whiteSpace=wrap;overflow=hidden;rotatable=1;points=[];portConstraint=eastwest;part=1;editable=1;movable=1;resizable=1;deletable=1;locked=0;connectable=1;comic=0;enumerate=0;fontStyle=1" parent="XRP2DXV7LQ1C8lFrC8NO-256" vertex="1" connectable="0">
          <mxGeometry width="30" height="30" as="geometry" />
        </mxCell>
        <mxCell id="XRP2DXV7LQ1C8lFrC8NO-258" value="units_in_large" style="shape=partialRectangle;top=0;left=0;right=0;bottom=0;html=1;align=left;verticalAlign=top;fillColor=none;spacingLeft=34;spacingRight=4;whiteSpace=wrap;overflow=hidden;rotatable=1;points=[[0,0.5],[1,0.5]];portConstraint=eastwest;dropTarget=0;editable=1;movable=1;resizable=1;deletable=1;locked=0;connectable=1;comic=0;enumerate=0;fontStyle=1" parent="XRP2DXV7LQ1C8lFrC8NO-245" vertex="1">
          <mxGeometry y="200" width="230" height="30" as="geometry" />
        </mxCell>
        <mxCell id="XRP2DXV7LQ1C8lFrC8NO-259" value="" style="shape=partialRectangle;top=0;left=0;bottom=0;html=1;fillColor=none;align=left;verticalAlign=top;spacingLeft=4;spacingRight=4;whiteSpace=wrap;overflow=hidden;rotatable=1;points=[];portConstraint=eastwest;part=1;editable=1;movable=1;resizable=1;deletable=1;locked=0;connectable=1;comic=0;enumerate=0;fontStyle=1" parent="XRP2DXV7LQ1C8lFrC8NO-258" vertex="1" connectable="0">
          <mxGeometry width="30" height="30" as="geometry" />
        </mxCell>
        <mxCell id="XRP2DXV7LQ1C8lFrC8NO-260" value="units_in_xlarge" style="shape=partialRectangle;top=0;left=0;right=0;bottom=0;html=1;align=left;verticalAlign=top;fillColor=none;spacingLeft=34;spacingRight=4;whiteSpace=wrap;overflow=hidden;rotatable=1;points=[[0,0.5],[1,0.5]];portConstraint=eastwest;dropTarget=0;editable=1;movable=1;resizable=1;deletable=1;locked=0;connectable=1;comic=0;enumerate=0;fontStyle=1" parent="XRP2DXV7LQ1C8lFrC8NO-245" vertex="1">
          <mxGeometry y="230" width="230" height="30" as="geometry" />
        </mxCell>
        <mxCell id="XRP2DXV7LQ1C8lFrC8NO-261" value="" style="shape=partialRectangle;top=0;left=0;bottom=0;html=1;fillColor=none;align=left;verticalAlign=top;spacingLeft=4;spacingRight=4;whiteSpace=wrap;overflow=hidden;rotatable=1;points=[];portConstraint=eastwest;part=1;editable=1;movable=1;resizable=1;deletable=1;locked=0;connectable=1;comic=0;enumerate=0;fontStyle=1" parent="XRP2DXV7LQ1C8lFrC8NO-260" vertex="1" connectable="0">
          <mxGeometry width="30" height="30" as="geometry" />
        </mxCell>
        <mxCell id="XRP2DXV7LQ1C8lFrC8NO-252" value="minimum_inventory" style="shape=partialRectangle;top=0;left=0;right=0;bottom=0;html=1;align=left;verticalAlign=top;fillColor=none;spacingLeft=34;spacingRight=4;whiteSpace=wrap;overflow=hidden;rotatable=1;points=[[0,0.5],[1,0.5]];portConstraint=eastwest;dropTarget=0;editable=1;movable=1;resizable=1;deletable=1;locked=0;connectable=1;comic=0;enumerate=0;fontStyle=1" parent="XRP2DXV7LQ1C8lFrC8NO-245" vertex="1">
          <mxGeometry y="260" width="230" height="30" as="geometry" />
        </mxCell>
        <mxCell id="XRP2DXV7LQ1C8lFrC8NO-253" value="" style="shape=partialRectangle;top=0;left=0;bottom=0;html=1;fillColor=none;align=left;verticalAlign=top;spacingLeft=4;spacingRight=4;whiteSpace=wrap;overflow=hidden;rotatable=1;points=[];portConstraint=eastwest;part=1;editable=1;movable=1;resizable=1;deletable=1;locked=0;connectable=1;comic=0;enumerate=0;fontStyle=1" parent="XRP2DXV7LQ1C8lFrC8NO-252" vertex="1" connectable="0">
          <mxGeometry width="30" height="30" as="geometry" />
        </mxCell>
        <mxCell id="XRP2DXV7LQ1C8lFrC8NO-262" value="current_inventory" style="shape=partialRectangle;top=0;left=0;right=0;bottom=0;html=1;align=left;verticalAlign=top;fillColor=none;spacingLeft=34;spacingRight=4;whiteSpace=wrap;overflow=hidden;rotatable=1;points=[[0,0.5],[1,0.5]];portConstraint=eastwest;dropTarget=0;editable=1;movable=1;resizable=1;deletable=1;locked=0;connectable=1;comic=0;enumerate=0;fontStyle=1" parent="XRP2DXV7LQ1C8lFrC8NO-245" vertex="1">
          <mxGeometry y="290" width="230" height="30" as="geometry" />
        </mxCell>
        <mxCell id="XRP2DXV7LQ1C8lFrC8NO-263" value="" style="shape=partialRectangle;top=0;left=0;bottom=0;html=1;fillColor=none;align=left;verticalAlign=top;spacingLeft=4;spacingRight=4;whiteSpace=wrap;overflow=hidden;rotatable=1;points=[];portConstraint=eastwest;part=1;editable=1;movable=1;resizable=1;deletable=1;locked=0;connectable=1;comic=0;enumerate=0;fontStyle=1" parent="XRP2DXV7LQ1C8lFrC8NO-262" vertex="1" connectable="0">
          <mxGeometry width="30" height="30" as="geometry" />
        </mxCell>
        <mxCell id="5XdCu-Sr5xr-vJQQU0_O-33" style="rounded=0;orthogonalLoop=1;jettySize=auto;html=1;startArrow=ERmandOne;startFill=0;endArrow=ERzeroToMany;endFill=0;editable=1;movable=1;resizable=1;rotatable=1;deletable=1;locked=0;connectable=1;comic=0;enumerate=0;edgeStyle=orthogonalEdgeStyle;fontStyle=1;strokeWidth=2;fontColor=#990000;strokeColor=#990000;" parent="1" source="XRP2DXV7LQ1C8lFrC8NO-268" target="XRP2DXV7LQ1C8lFrC8NO-130" edge="1">
          <mxGeometry relative="1" as="geometry">
            <mxPoint x="-2175" y="528" as="targetPoint" />
            <Array as="points">
              <mxPoint x="-2195" y="498" />
              <mxPoint x="-2195" y="498" />
            </Array>
          </mxGeometry>
        </mxCell>
        <mxCell id="ft23h2SvaQS1Ued9Bh15-869" value="placed by" style="edgeLabel;html=1;align=center;verticalAlign=middle;resizable=0;points=[];labelBorderColor=none;fontStyle=1;fontColor=#990000;labelBackgroundColor=#E9E2C8;" parent="5XdCu-Sr5xr-vJQQU0_O-33" vertex="1" connectable="0">
          <mxGeometry x="-0.0112" y="2" relative="1" as="geometry">
            <mxPoint x="2" y="-1" as="offset" />
          </mxGeometry>
        </mxCell>
        <mxCell id="XRP2DXV7LQ1C8lFrC8NO-268" value="&lt;font style=&quot;font-weight: normal;&quot; color=&quot;#000000&quot;&gt;customer&lt;/font&gt;" style="swimlane;html=1;fontStyle=0;childLayout=stackLayout;horizontal=1;startSize=20;fillColor=#a0a0a0;horizontalStack=0;resizeParent=1;resizeLast=0;collapsible=1;marginBottom=0;swimlaneFillColor=#ffffff;align=center;rounded=0;shadow=0;comic=0;labelBackgroundColor=none;strokeWidth=2;fontFamily=Verdana;fontSize=14;editable=1;movable=1;resizable=1;rotatable=1;deletable=1;locked=0;connectable=1;enumerate=0;strokeColor=#007FFF;fontColor=#000000;verticalAlign=middle;spacing=2;spacingBottom=5;" parent="1" vertex="1">
          <mxGeometry x="-2275" y="508" width="160" height="120" as="geometry" />
        </mxCell>
        <mxCell id="XRP2DXV7LQ1C8lFrC8NO-269" value="customer_id" style="shape=partialRectangle;top=0;left=0;right=0;bottom=1;html=1;align=left;verticalAlign=middle;fillColor=none;spacingLeft=34;spacingRight=4;whiteSpace=wrap;overflow=hidden;rotatable=1;points=[[0,0.5],[1,0.5]];portConstraint=eastwest;dropTarget=0;fontStyle=5;editable=1;movable=1;resizable=1;deletable=1;locked=0;connectable=1;comic=0;enumerate=0;strokeColor=#007FFF;strokeWidth=2;" parent="XRP2DXV7LQ1C8lFrC8NO-268" vertex="1">
          <mxGeometry y="20" width="160" height="20" as="geometry" />
        </mxCell>
        <mxCell id="XRP2DXV7LQ1C8lFrC8NO-270" value="PK" style="shape=partialRectangle;top=0;left=0;bottom=0;html=1;fillColor=none;align=left;verticalAlign=middle;spacingLeft=4;spacingRight=4;whiteSpace=wrap;overflow=hidden;rotatable=1;points=[];portConstraint=eastwest;part=1;editable=1;movable=1;resizable=1;deletable=1;locked=0;connectable=1;comic=0;enumerate=0;fontStyle=1" parent="XRP2DXV7LQ1C8lFrC8NO-269" vertex="1" connectable="0">
          <mxGeometry width="30" height="20" as="geometry" />
        </mxCell>
        <mxCell id="XRP2DXV7LQ1C8lFrC8NO-271" value="first_name" style="shape=partialRectangle;top=0;left=0;right=0;bottom=0;html=1;align=left;verticalAlign=middle;fillColor=none;spacingLeft=34;spacingRight=4;whiteSpace=wrap;overflow=hidden;rotatable=1;points=[[0,0.5],[1,0.5]];portConstraint=eastwest;dropTarget=0;editable=1;movable=1;resizable=1;deletable=1;locked=0;connectable=1;comic=0;enumerate=0;fontStyle=1" parent="XRP2DXV7LQ1C8lFrC8NO-268" vertex="1">
          <mxGeometry y="40" width="160" height="20" as="geometry" />
        </mxCell>
        <mxCell id="XRP2DXV7LQ1C8lFrC8NO-272" value="" style="shape=partialRectangle;top=0;left=0;bottom=0;html=1;fillColor=none;align=left;verticalAlign=middle;spacingLeft=4;spacingRight=4;whiteSpace=wrap;overflow=hidden;rotatable=1;points=[];portConstraint=eastwest;part=1;editable=1;movable=1;resizable=1;deletable=1;locked=0;connectable=1;comic=0;enumerate=0;fontStyle=1" parent="XRP2DXV7LQ1C8lFrC8NO-271" vertex="1" connectable="0">
          <mxGeometry width="30" height="20" as="geometry" />
        </mxCell>
        <mxCell id="XRP2DXV7LQ1C8lFrC8NO-273" value="last_name" style="shape=partialRectangle;top=0;left=0;right=0;bottom=0;html=1;align=left;verticalAlign=middle;fillColor=none;spacingLeft=34;spacingRight=4;whiteSpace=wrap;overflow=hidden;rotatable=1;points=[[0,0.5],[1,0.5]];portConstraint=eastwest;dropTarget=0;editable=1;movable=1;resizable=1;deletable=1;locked=0;connectable=1;comic=0;enumerate=0;fontStyle=1" parent="XRP2DXV7LQ1C8lFrC8NO-268" vertex="1">
          <mxGeometry y="60" width="160" height="20" as="geometry" />
        </mxCell>
        <mxCell id="XRP2DXV7LQ1C8lFrC8NO-274" value="" style="shape=partialRectangle;top=0;left=0;bottom=0;html=1;fillColor=none;align=left;verticalAlign=middle;spacingLeft=4;spacingRight=4;whiteSpace=wrap;overflow=hidden;rotatable=1;points=[];portConstraint=eastwest;part=1;editable=1;movable=1;resizable=1;deletable=1;locked=0;connectable=1;comic=0;enumerate=0;fontStyle=1" parent="XRP2DXV7LQ1C8lFrC8NO-273" vertex="1" connectable="0">
          <mxGeometry width="30" height="20" as="geometry" />
        </mxCell>
        <mxCell id="XRP2DXV7LQ1C8lFrC8NO-275" value="phone_number" style="shape=partialRectangle;top=0;left=0;right=0;bottom=0;html=1;align=left;verticalAlign=middle;fillColor=none;spacingLeft=34;spacingRight=4;whiteSpace=wrap;overflow=hidden;rotatable=1;points=[[0,0.5],[1,0.5]];portConstraint=eastwest;dropTarget=0;editable=1;movable=1;resizable=1;deletable=1;locked=0;connectable=1;comic=0;enumerate=0;fontStyle=1" parent="XRP2DXV7LQ1C8lFrC8NO-268" vertex="1">
          <mxGeometry y="80" width="160" height="20" as="geometry" />
        </mxCell>
        <mxCell id="XRP2DXV7LQ1C8lFrC8NO-276" value="" style="shape=partialRectangle;top=0;left=0;bottom=0;html=1;fillColor=none;align=left;verticalAlign=middle;spacingLeft=4;spacingRight=4;whiteSpace=wrap;overflow=hidden;rotatable=1;points=[];portConstraint=eastwest;part=1;editable=1;movable=1;resizable=1;deletable=1;locked=0;connectable=1;comic=0;enumerate=0;fontStyle=1" parent="XRP2DXV7LQ1C8lFrC8NO-275" vertex="1" connectable="0">
          <mxGeometry width="30" height="20" as="geometry" />
        </mxCell>
        <mxCell id="5XdCu-Sr5xr-vJQQU0_O-34" value="has_address" style="shape=partialRectangle;top=0;left=0;right=0;bottom=0;html=1;align=left;verticalAlign=middle;fillColor=none;spacingLeft=34;spacingRight=4;whiteSpace=wrap;overflow=hidden;rotatable=1;points=[[0,0.5],[1,0.5]];portConstraint=eastwest;dropTarget=0;editable=1;movable=1;resizable=1;deletable=1;locked=0;connectable=1;comic=0;enumerate=0;fontStyle=1" parent="XRP2DXV7LQ1C8lFrC8NO-268" vertex="1">
          <mxGeometry y="100" width="160" height="20" as="geometry" />
        </mxCell>
        <mxCell id="5XdCu-Sr5xr-vJQQU0_O-35" value="" style="shape=partialRectangle;top=0;left=0;bottom=0;html=1;fillColor=none;align=left;verticalAlign=middle;spacingLeft=4;spacingRight=4;whiteSpace=wrap;overflow=hidden;rotatable=1;points=[];portConstraint=eastwest;part=1;editable=1;movable=1;resizable=1;deletable=1;locked=0;connectable=1;comic=0;enumerate=0;fontStyle=1" parent="5XdCu-Sr5xr-vJQQU0_O-34" vertex="1" connectable="0">
          <mxGeometry width="30" height="20" as="geometry" />
        </mxCell>
        <mxCell id="5XdCu-Sr5xr-vJQQU0_O-40" style="rounded=0;orthogonalLoop=1;jettySize=auto;html=1;endArrow=none;endFill=0;entryX=0.5;entryY=1;entryDx=0;entryDy=0;editable=1;movable=1;resizable=1;rotatable=1;deletable=1;locked=0;connectable=1;comic=0;enumerate=0;exitX=0.5;exitY=0;exitDx=0;exitDy=0;edgeStyle=orthogonalEdgeStyle;fontStyle=1" parent="1" source="ft23h2SvaQS1Ued9Bh15-1" target="5XdCu-Sr5xr-vJQQU0_O-36" edge="1">
          <mxGeometry relative="1" as="geometry">
            <mxPoint x="-565" y="948" as="targetPoint" />
            <mxPoint x="-448.82352941176464" y="978" as="sourcePoint" />
            <Array as="points">
              <mxPoint x="-2195" y="738" />
              <mxPoint x="-2195" y="738" />
            </Array>
          </mxGeometry>
        </mxCell>
        <mxCell id="5XdCu-Sr5xr-vJQQU0_O-1" value="" style="fontSize=11;html=1;endArrow=ERmandOne;startArrow=ERzeroToMany;rounded=0;endFill=0;startFill=0;editable=1;movable=1;resizable=1;rotatable=1;deletable=1;locked=0;connectable=1;comic=0;enumerate=0;fontStyle=1;strokeColor=#990000;fontColor=#990000;strokeWidth=2;edgeStyle=orthogonalEdgeStyle;" parent="1" source="XRP2DXV7LQ1C8lFrC8NO-238" target="XRP2DXV7LQ1C8lFrC8NO-245" edge="1">
          <mxGeometry width="100" height="100" relative="1" as="geometry">
            <mxPoint x="-1410" y="440" as="sourcePoint" />
            <mxPoint x="-1336" y="528" as="targetPoint" />
            <Array as="points">
              <mxPoint x="-1360" y="470" />
              <mxPoint x="-1360" y="470" />
            </Array>
          </mxGeometry>
        </mxCell>
        <mxCell id="5XdCu-Sr5xr-vJQQU0_O-10" value="of" style="edgeLabel;html=1;align=center;verticalAlign=middle;resizable=1;points=[];editable=1;movable=1;rotatable=1;deletable=1;locked=0;connectable=1;comic=0;enumerate=0;fontStyle=1;fontColor=#990000;labelBackgroundColor=#E9E2C8;fontSize=12;" parent="5XdCu-Sr5xr-vJQQU0_O-1" vertex="1" connectable="0">
          <mxGeometry relative="1" as="geometry">
            <mxPoint y="2" as="offset" />
          </mxGeometry>
        </mxCell>
        <mxCell id="5XdCu-Sr5xr-vJQQU0_O-4" value="" style="fontSize=11;html=1;endArrow=ERoneToMany;startArrow=ERmandOne;rounded=0;endFill=0;elbow=vertical;editable=1;movable=1;resizable=1;rotatable=1;deletable=1;locked=0;connectable=1;comic=0;enumerate=0;fontStyle=1;strokeColor=#990000;fontColor=#990000;startFill=0;strokeWidth=2;edgeStyle=orthogonalEdgeStyle;" parent="1" source="aJEdRUJ3gJoqMp5k8vDi-50" target="XRP2DXV7LQ1C8lFrC8NO-238" edge="1">
          <mxGeometry width="100" height="100" relative="1" as="geometry">
            <mxPoint x="-1567.4897959183672" y="208" as="sourcePoint" />
            <mxPoint x="-1310" y="330" as="targetPoint" />
            <Array as="points">
              <mxPoint x="-1567" y="260" />
              <mxPoint x="-1360" y="260" />
            </Array>
          </mxGeometry>
        </mxCell>
        <mxCell id="5XdCu-Sr5xr-vJQQU0_O-9" value="with" style="edgeLabel;html=1;align=center;verticalAlign=middle;resizable=1;points=[];editable=1;movable=1;rotatable=1;deletable=1;locked=0;connectable=1;comic=0;enumerate=0;fontStyle=1;fontColor=#990000;labelBackgroundColor=#E9E2C8;fontSize=12;" parent="5XdCu-Sr5xr-vJQQU0_O-4" vertex="1" connectable="0">
          <mxGeometry relative="1" as="geometry">
            <mxPoint as="offset" />
          </mxGeometry>
        </mxCell>
        <mxCell id="5XdCu-Sr5xr-vJQQU0_O-5" value="" style="fontSize=11;html=1;endArrow=ERmandOne;startArrow=ERzeroToMany;rounded=0;endFill=0;startFill=0;editable=1;movable=1;resizable=1;rotatable=1;deletable=1;locked=0;connectable=1;comic=0;enumerate=0;fontStyle=1;edgeStyle=orthogonalEdgeStyle;strokeColor=#990000;fontColor=#990000;strokeWidth=2;" parent="1" source="aJEdRUJ3gJoqMp5k8vDi-50" target="ft23h2SvaQS1Ued9Bh15-895" edge="1">
          <mxGeometry width="100" height="100" relative="1" as="geometry">
            <mxPoint x="-1470" y="110" as="sourcePoint" />
            <mxPoint x="-1355" y="178.0256410256411" as="targetPoint" />
            <Array as="points">
              <mxPoint x="-1420" y="130" />
              <mxPoint x="-1420" y="130" />
            </Array>
          </mxGeometry>
        </mxCell>
        <mxCell id="5XdCu-Sr5xr-vJQQU0_O-12" value="of&lt;br style=&quot;font-size: 12px;&quot;&gt;" style="edgeLabel;html=1;align=center;verticalAlign=middle;resizable=1;points=[];editable=1;movable=1;rotatable=1;deletable=1;locked=0;connectable=1;comic=0;enumerate=0;fontStyle=1;fontColor=#990000;labelBackgroundColor=#E9E2C8;fontSize=12;" parent="5XdCu-Sr5xr-vJQQU0_O-5" vertex="1" connectable="0">
          <mxGeometry relative="1" as="geometry">
            <mxPoint as="offset" />
          </mxGeometry>
        </mxCell>
        <mxCell id="5XdCu-Sr5xr-vJQQU0_O-8" style="rounded=0;orthogonalLoop=1;jettySize=auto;html=1;endArrow=ERzeroToMany;endFill=0;startArrow=ERmandOne;startFill=0;editable=1;movable=1;resizable=1;rotatable=1;deletable=1;locked=0;connectable=1;comic=0;enumerate=0;fontStyle=1;edgeStyle=orthogonalEdgeStyle;strokeColor=#990000;fontColor=#990000;strokeWidth=2;" parent="1" source="XRP2DXV7LQ1C8lFrC8NO-154" target="XRP2DXV7LQ1C8lFrC8NO-214" edge="1">
          <mxGeometry relative="1" as="geometry">
            <Array as="points">
              <mxPoint x="-1615" y="488" />
              <mxPoint x="-1615" y="488" />
            </Array>
          </mxGeometry>
        </mxCell>
        <mxCell id="5XdCu-Sr5xr-vJQQU0_O-27" value="using" style="edgeLabel;html=1;align=center;verticalAlign=middle;resizable=1;points=[];editable=1;movable=1;rotatable=1;deletable=1;locked=0;connectable=1;comic=0;enumerate=0;fontStyle=1;fontColor=#990000;labelBackgroundColor=#E9E2C8;fontSize=12;" parent="5XdCu-Sr5xr-vJQQU0_O-8" vertex="1" connectable="0">
          <mxGeometry relative="1" as="geometry">
            <mxPoint y="2" as="offset" />
          </mxGeometry>
        </mxCell>
        <mxCell id="XRP2DXV7LQ1C8lFrC8NO-191" value="percent_amount" style="swimlane;html=1;fontStyle=0;childLayout=stackLayout;horizontal=1;startSize=30;fillColor=#a0a0a0;horizontalStack=0;resizeParent=1;resizeLast=0;collapsible=1;marginBottom=0;swimlaneFillColor=#ffffff;align=center;rounded=0;shadow=0;comic=0;labelBackgroundColor=none;strokeWidth=2;fontFamily=Verdana;fontSize=14;editable=1;movable=1;resizable=1;rotatable=1;deletable=1;locked=0;connectable=1;enumerate=0;strokeColor=#007FFF;fontColor=#000000;spacing=2;spacingBottom=5;" parent="1" vertex="1">
          <mxGeometry x="-1700" y="758" width="140" height="90" as="geometry" />
        </mxCell>
        <mxCell id="XRP2DXV7LQ1C8lFrC8NO-192" value="coupon_id" style="shape=partialRectangle;top=0;left=0;right=0;bottom=1;html=1;align=left;verticalAlign=middle;fillColor=none;spacingLeft=60;spacingRight=4;whiteSpace=wrap;overflow=hidden;rotatable=1;points=[[0,0.5],[1,0.5]];portConstraint=eastwest;dropTarget=0;fontStyle=5;editable=1;movable=1;resizable=1;deletable=1;locked=0;connectable=1;comic=0;enumerate=0;strokeColor=#007FFF;" parent="XRP2DXV7LQ1C8lFrC8NO-191" vertex="1">
          <mxGeometry y="30" width="140" height="30" as="geometry" />
        </mxCell>
        <mxCell id="XRP2DXV7LQ1C8lFrC8NO-193" value="PK,FK1" style="shape=partialRectangle;fontStyle=1;top=0;left=0;bottom=0;html=1;fillColor=none;align=left;verticalAlign=middle;spacingLeft=4;spacingRight=4;whiteSpace=wrap;overflow=hidden;rotatable=1;points=[];portConstraint=eastwest;part=1;editable=1;movable=1;resizable=1;deletable=1;locked=0;connectable=1;comic=0;enumerate=0;" parent="XRP2DXV7LQ1C8lFrC8NO-192" vertex="1" connectable="0">
          <mxGeometry width="60" height="30" as="geometry" />
        </mxCell>
        <mxCell id="XRP2DXV7LQ1C8lFrC8NO-194" value="percent_off" style="shape=partialRectangle;top=0;left=0;right=0;bottom=0;html=1;align=left;verticalAlign=top;fillColor=none;spacingLeft=60;spacingRight=4;whiteSpace=wrap;overflow=hidden;rotatable=1;points=[[0,0.5],[1,0.5]];portConstraint=eastwest;dropTarget=0;editable=1;movable=1;resizable=1;deletable=1;locked=0;connectable=1;comic=0;enumerate=0;fontStyle=1" parent="XRP2DXV7LQ1C8lFrC8NO-191" vertex="1">
          <mxGeometry y="60" width="140" height="30" as="geometry" />
        </mxCell>
        <mxCell id="XRP2DXV7LQ1C8lFrC8NO-195" value="" style="shape=partialRectangle;top=0;left=0;bottom=0;html=1;fillColor=none;align=left;verticalAlign=top;spacingLeft=4;spacingRight=4;whiteSpace=wrap;overflow=hidden;rotatable=1;points=[];portConstraint=eastwest;part=1;editable=1;movable=1;resizable=1;deletable=1;locked=0;connectable=1;comic=0;enumerate=0;fontStyle=1" parent="XRP2DXV7LQ1C8lFrC8NO-194" vertex="1" connectable="0">
          <mxGeometry width="60" height="30" as="geometry" />
        </mxCell>
        <mxCell id="XRP2DXV7LQ1C8lFrC8NO-154" value="coupon" style="swimlane;html=1;fontStyle=0;childLayout=stackLayout;horizontal=1;startSize=20;fillColor=#a0a0a0;horizontalStack=0;resizeParent=1;resizeLast=0;collapsible=1;marginBottom=0;swimlaneFillColor=#ffffff;align=center;rounded=0;shadow=0;comic=0;labelBackgroundColor=none;strokeWidth=2;fontFamily=Verdana;fontSize=14;editable=1;movable=1;resizable=1;rotatable=1;deletable=1;locked=0;connectable=1;enumerate=0;strokeColor=#007FFF;fontColor=#000000;spacing=2;spacingBottom=5;" parent="1" vertex="1">
          <mxGeometry x="-1920" y="508" width="360" height="100" as="geometry" />
        </mxCell>
        <mxCell id="XRP2DXV7LQ1C8lFrC8NO-157" value="coupon_id" style="shape=partialRectangle;top=0;left=0;right=0;bottom=1;html=1;align=left;verticalAlign=middle;fillColor=none;spacingLeft=34;spacingRight=4;whiteSpace=wrap;overflow=hidden;rotatable=1;points=[[0,0.5],[1,0.5]];portConstraint=eastwest;dropTarget=0;fontStyle=5;editable=1;movable=1;resizable=1;deletable=1;locked=0;connectable=1;comic=0;enumerate=0;strokeColor=#007FFF;strokeWidth=2;" parent="XRP2DXV7LQ1C8lFrC8NO-154" vertex="1">
          <mxGeometry y="20" width="360" height="20" as="geometry" />
        </mxCell>
        <mxCell id="XRP2DXV7LQ1C8lFrC8NO-158" value="PK" style="shape=partialRectangle;fontStyle=1;top=0;left=0;bottom=0;html=1;fillColor=none;align=left;verticalAlign=middle;spacingLeft=4;spacingRight=4;whiteSpace=wrap;overflow=hidden;rotatable=1;points=[];portConstraint=eastwest;part=1;editable=1;movable=1;resizable=1;deletable=1;locked=0;connectable=1;comic=0;enumerate=0;" parent="XRP2DXV7LQ1C8lFrC8NO-157" vertex="1" connectable="0">
          <mxGeometry width="30" height="20" as="geometry" />
        </mxCell>
        <mxCell id="XRP2DXV7LQ1C8lFrC8NO-159" value="name" style="shape=partialRectangle;top=0;left=0;right=0;bottom=0;html=1;align=left;verticalAlign=middle;fillColor=none;spacingLeft=34;spacingRight=4;whiteSpace=wrap;overflow=hidden;rotatable=1;points=[[0,0.5],[1,0.5]];portConstraint=eastwest;dropTarget=0;editable=1;movable=1;resizable=1;deletable=1;locked=0;connectable=1;comic=0;enumerate=0;fontStyle=1;strokeColor=#007FFF;strokeWidth=2;" parent="XRP2DXV7LQ1C8lFrC8NO-154" vertex="1">
          <mxGeometry y="40" width="360" height="20" as="geometry" />
        </mxCell>
        <mxCell id="XRP2DXV7LQ1C8lFrC8NO-160" value="" style="shape=partialRectangle;top=0;left=0;bottom=0;html=1;fillColor=none;align=left;verticalAlign=top;spacingLeft=4;spacingRight=4;whiteSpace=wrap;overflow=hidden;rotatable=1;points=[];portConstraint=eastwest;part=1;editable=1;movable=1;resizable=1;deletable=1;locked=0;connectable=1;comic=0;enumerate=0;fontStyle=1" parent="XRP2DXV7LQ1C8lFrC8NO-159" vertex="1" connectable="0">
          <mxGeometry width="30" height="20" as="geometry" />
        </mxCell>
        <mxCell id="XRP2DXV7LQ1C8lFrC8NO-161" value="for_order_pizza_or_both" style="shape=partialRectangle;top=0;left=0;right=0;bottom=0;html=1;align=left;verticalAlign=middle;fillColor=none;spacingLeft=34;spacingRight=4;whiteSpace=wrap;overflow=hidden;rotatable=1;points=[[0,0.5],[1,0.5]];portConstraint=eastwest;dropTarget=0;editable=1;movable=1;resizable=1;deletable=1;locked=0;connectable=1;comic=0;enumerate=0;fontStyle=1;recursiveResize=1;expand=1;container=0;collapsible=0;perimeter=rectanglePerimeter;strokeColor=#007FFF;strokeWidth=2;" parent="XRP2DXV7LQ1C8lFrC8NO-154" vertex="1">
          <mxGeometry y="60" width="360" height="20" as="geometry" />
        </mxCell>
        <mxCell id="XRP2DXV7LQ1C8lFrC8NO-162" value="" style="shape=partialRectangle;top=0;left=0;bottom=0;html=1;fillColor=none;align=left;verticalAlign=top;spacingLeft=4;spacingRight=4;whiteSpace=wrap;overflow=hidden;rotatable=1;points=[];portConstraint=eastwest;part=1;editable=1;movable=1;resizable=1;deletable=1;locked=0;connectable=1;comic=0;enumerate=0;fontStyle=1" parent="XRP2DXV7LQ1C8lFrC8NO-161" vertex="1" connectable="0">
          <mxGeometry width="30" height="20" as="geometry" />
        </mxCell>
        <mxCell id="XRP2DXV7LQ1C8lFrC8NO-163" value="discount_type" style="shape=partialRectangle;top=0;left=0;right=0;bottom=0;html=1;align=left;verticalAlign=middle;fillColor=none;spacingLeft=34;spacingRight=4;whiteSpace=wrap;overflow=hidden;rotatable=1;points=[[0,0.5],[1,0.5]];portConstraint=eastwest;dropTarget=0;editable=1;movable=1;resizable=1;deletable=1;locked=0;connectable=1;comic=0;enumerate=0;fontStyle=1;strokeColor=#007FFF;strokeWidth=2;" parent="XRP2DXV7LQ1C8lFrC8NO-154" vertex="1">
          <mxGeometry y="80" width="360" height="20" as="geometry" />
        </mxCell>
        <mxCell id="XRP2DXV7LQ1C8lFrC8NO-164" value="" style="shape=partialRectangle;top=0;left=0;bottom=0;html=1;fillColor=none;align=left;verticalAlign=top;spacingLeft=4;spacingRight=4;whiteSpace=wrap;overflow=hidden;rotatable=1;points=[];portConstraint=eastwest;part=1;editable=1;movable=1;resizable=1;deletable=1;locked=0;connectable=1;comic=0;enumerate=0;fontStyle=1" parent="XRP2DXV7LQ1C8lFrC8NO-163" vertex="1" connectable="0">
          <mxGeometry width="30" height="20" as="geometry" />
        </mxCell>
        <mxCell id="XRP2DXV7LQ1C8lFrC8NO-190" style="rounded=0;orthogonalLoop=1;jettySize=auto;html=1;endArrow=none;endFill=0;editable=1;movable=1;resizable=1;rotatable=1;deletable=1;locked=0;connectable=1;comic=0;enumerate=0;fontStyle=1;edgeStyle=orthogonalEdgeStyle;entryX=0.489;entryY=1.045;entryDx=0;entryDy=0;entryPerimeter=0;" parent="1" source="XRP2DXV7LQ1C8lFrC8NO-191" target="ft23h2SvaQS1Ued9Bh15-882" edge="1">
          <mxGeometry relative="1" as="geometry">
            <mxPoint x="-1715" y="778" as="targetPoint" />
            <mxPoint x="-1010" y="1091" as="sourcePoint" />
            <Array as="points">
              <mxPoint x="-1620" y="738" />
              <mxPoint x="-1735" y="738" />
            </Array>
          </mxGeometry>
        </mxCell>
        <mxCell id="XRP2DXV7LQ1C8lFrC8NO-196" style="rounded=0;orthogonalLoop=1;jettySize=auto;html=1;endArrow=none;endFill=0;editable=1;movable=1;resizable=1;rotatable=1;deletable=1;locked=0;connectable=1;comic=0;enumerate=0;fontStyle=1;edgeStyle=orthogonalEdgeStyle;entryX=0.5;entryY=1;entryDx=0;entryDy=0;" parent="1" source="5XdCu-Sr5xr-vJQQU0_O-58" target="ft23h2SvaQS1Ued9Bh15-882" edge="1">
          <mxGeometry relative="1" as="geometry">
            <mxPoint x="-1735" y="798" as="targetPoint" />
            <mxPoint x="-1195" y="1068" as="sourcePoint" />
            <Array as="points">
              <mxPoint x="-1865" y="738" />
              <mxPoint x="-1735" y="738" />
            </Array>
          </mxGeometry>
        </mxCell>
        <mxCell id="5XdCu-Sr5xr-vJQQU0_O-14" value="order_discount" style="swimlane;html=1;fontStyle=0;childLayout=stackLayout;horizontal=1;startSize=20;fillColor=#a0a0a0;horizontalStack=0;resizeParent=1;resizeLast=0;collapsible=1;marginBottom=0;swimlaneFillColor=#ffffff;align=center;rounded=0;shadow=0;comic=0;labelBackgroundColor=none;strokeWidth=2;fontFamily=Verdana;fontSize=14;editable=1;movable=1;resizable=1;rotatable=1;deletable=1;locked=0;connectable=1;enumerate=0;strokeColor=#007FFF;fontColor=#000000;spacing=2;spacingBottom=5;" parent="1" vertex="1">
          <mxGeometry x="-1910" y="320" width="150" height="110" as="geometry" />
        </mxCell>
        <mxCell id="5XdCu-Sr5xr-vJQQU0_O-17" value="order_id" style="shape=partialRectangle;top=0;left=0;right=0;bottom=0;html=1;align=left;verticalAlign=middle;fillColor=none;spacingLeft=60;spacingRight=4;whiteSpace=wrap;overflow=hidden;rotatable=1;points=[[0,0.5],[1,0.5]];portConstraint=eastwest;dropTarget=0;fontStyle=5;editable=1;movable=1;resizable=1;deletable=1;locked=0;connectable=1;comic=0;enumerate=0;" parent="5XdCu-Sr5xr-vJQQU0_O-14" vertex="1">
          <mxGeometry y="20" width="150" height="30" as="geometry" />
        </mxCell>
        <mxCell id="5XdCu-Sr5xr-vJQQU0_O-18" value="PK,FK1" style="shape=partialRectangle;fontStyle=1;top=0;left=0;bottom=0;html=1;fillColor=none;align=left;verticalAlign=middle;spacingLeft=4;spacingRight=4;whiteSpace=wrap;overflow=hidden;rotatable=1;points=[];portConstraint=eastwest;part=1;editable=1;movable=1;resizable=1;deletable=1;locked=0;connectable=1;comic=0;enumerate=0;" parent="5XdCu-Sr5xr-vJQQU0_O-17" vertex="1" connectable="0">
          <mxGeometry width="60" height="30" as="geometry" />
        </mxCell>
        <mxCell id="5XdCu-Sr5xr-vJQQU0_O-19" value="coupon_id" style="shape=partialRectangle;top=0;left=0;right=0;bottom=1;html=1;align=left;verticalAlign=middle;fillColor=none;spacingLeft=60;spacingRight=4;whiteSpace=wrap;overflow=hidden;rotatable=1;points=[[0,0.5],[1,0.5]];portConstraint=eastwest;dropTarget=0;fontStyle=5;editable=1;movable=1;resizable=1;deletable=1;locked=0;connectable=1;comic=0;enumerate=0;strokeColor=#007FFF;" parent="5XdCu-Sr5xr-vJQQU0_O-14" vertex="1">
          <mxGeometry y="50" width="150" height="30" as="geometry" />
        </mxCell>
        <mxCell id="5XdCu-Sr5xr-vJQQU0_O-20" value="PK,FK2" style="shape=partialRectangle;fontStyle=1;top=0;left=0;bottom=0;html=1;fillColor=none;align=left;verticalAlign=middle;spacingLeft=4;spacingRight=4;whiteSpace=wrap;overflow=hidden;rotatable=1;points=[];portConstraint=eastwest;part=1;editable=1;movable=1;resizable=1;deletable=1;locked=0;connectable=1;comic=0;enumerate=0;" parent="5XdCu-Sr5xr-vJQQU0_O-19" vertex="1" connectable="0">
          <mxGeometry width="60" height="30" as="geometry" />
        </mxCell>
        <mxCell id="aJEdRUJ3gJoqMp5k8vDi-26" value="dollars_saved" style="shape=partialRectangle;top=0;left=0;right=0;bottom=0;html=1;align=left;verticalAlign=middle;fillColor=none;spacingLeft=60;spacingRight=4;whiteSpace=wrap;overflow=hidden;rotatable=1;points=[[0,0.5],[1,0.5]];portConstraint=eastwest;dropTarget=0;fontStyle=1;editable=1;movable=1;resizable=1;deletable=1;locked=0;connectable=1;comic=0;enumerate=0;" parent="5XdCu-Sr5xr-vJQQU0_O-14" vertex="1">
          <mxGeometry y="80" width="150" height="30" as="geometry" />
        </mxCell>
        <mxCell id="aJEdRUJ3gJoqMp5k8vDi-27" value="" style="shape=partialRectangle;fontStyle=1;top=0;left=0;bottom=0;html=1;fillColor=none;align=left;verticalAlign=middle;spacingLeft=4;spacingRight=4;whiteSpace=wrap;overflow=hidden;rotatable=1;points=[];portConstraint=eastwest;part=1;editable=1;movable=1;resizable=1;deletable=1;locked=0;connectable=1;comic=0;enumerate=0;" parent="aJEdRUJ3gJoqMp5k8vDi-26" vertex="1" connectable="0">
          <mxGeometry width="60" height="30" as="geometry" />
        </mxCell>
        <mxCell id="5XdCu-Sr5xr-vJQQU0_O-21" style="rounded=0;orthogonalLoop=1;jettySize=auto;html=1;endArrow=ERzeroToMany;endFill=0;startArrow=ERmandOne;startFill=0;editable=1;movable=1;resizable=1;rotatable=1;deletable=1;locked=0;connectable=1;comic=0;enumerate=0;fontStyle=1;edgeStyle=orthogonalEdgeStyle;strokeColor=#990000;fontColor=#990000;strokeWidth=2;" parent="1" source="XRP2DXV7LQ1C8lFrC8NO-154" target="5XdCu-Sr5xr-vJQQU0_O-14" edge="1">
          <mxGeometry relative="1" as="geometry">
            <mxPoint x="-1850" y="490" as="sourcePoint" />
            <mxPoint x="-1850.0000000000005" y="350" as="targetPoint" />
            <Array as="points">
              <mxPoint x="-1850" y="440" />
              <mxPoint x="-1850" y="440" />
            </Array>
          </mxGeometry>
        </mxCell>
        <mxCell id="5XdCu-Sr5xr-vJQQU0_O-28" value="using" style="edgeLabel;html=1;align=center;verticalAlign=middle;resizable=1;points=[];editable=1;movable=1;rotatable=1;deletable=1;locked=0;connectable=1;comic=0;enumerate=0;fontStyle=1;fontColor=#990000;labelBackgroundColor=#E9E2C8;" parent="5XdCu-Sr5xr-vJQQU0_O-21" vertex="1" connectable="0">
          <mxGeometry relative="1" as="geometry">
            <mxPoint as="offset" />
          </mxGeometry>
        </mxCell>
        <mxCell id="5XdCu-Sr5xr-vJQQU0_O-25" style="rounded=0;orthogonalLoop=1;jettySize=auto;html=1;endArrow=ERzeroToMany;endFill=0;startArrow=ERmandOne;startFill=0;editable=1;movable=1;resizable=1;rotatable=1;deletable=1;locked=0;connectable=1;comic=0;enumerate=0;fontStyle=1;edgeStyle=orthogonalEdgeStyle;strokeColor=#990000;fontColor=#990000;strokeWidth=2;" parent="1" source="XRP2DXV7LQ1C8lFrC8NO-67" target="5XdCu-Sr5xr-vJQQU0_O-14" edge="1">
          <mxGeometry relative="1" as="geometry">
            <mxPoint x="-1180" y="482" as="sourcePoint" />
            <mxPoint x="-1175" y="588" as="targetPoint" />
            <Array as="points">
              <mxPoint x="-1860" y="250" />
              <mxPoint x="-1860" y="250" />
            </Array>
          </mxGeometry>
        </mxCell>
        <mxCell id="5XdCu-Sr5xr-vJQQU0_O-26" value="has" style="edgeLabel;html=1;align=center;verticalAlign=middle;resizable=1;points=[];editable=1;movable=1;rotatable=1;deletable=1;locked=0;connectable=1;comic=0;enumerate=0;fontStyle=1;fontColor=#990000;labelBackgroundColor=#E9E2C8;" parent="5XdCu-Sr5xr-vJQQU0_O-25" vertex="1" connectable="0">
          <mxGeometry relative="1" as="geometry">
            <mxPoint y="-1" as="offset" />
          </mxGeometry>
        </mxCell>
        <mxCell id="5XdCu-Sr5xr-vJQQU0_O-41" style="rounded=0;orthogonalLoop=1;jettySize=auto;html=1;endArrow=none;endFill=0;exitX=0.5;exitY=0;exitDx=0;exitDy=0;editable=1;movable=1;resizable=1;rotatable=1;deletable=1;locked=0;connectable=1;comic=0;enumerate=0;edgeStyle=orthogonalEdgeStyle;fontStyle=1;entryX=0.5;entryY=1;entryDx=0;entryDy=0;" parent="1" source="5XdCu-Sr5xr-vJQQU0_O-36" target="XRP2DXV7LQ1C8lFrC8NO-268" edge="1">
          <mxGeometry relative="1" as="geometry">
            <mxPoint x="-515" y="898" as="sourcePoint" />
            <mxPoint x="-460" y="948" as="targetPoint" />
            <Array as="points">
              <mxPoint x="-2195" y="698" />
              <mxPoint x="-2195" y="698" />
            </Array>
          </mxGeometry>
        </mxCell>
        <mxCell id="5XdCu-Sr5xr-vJQQU0_O-58" value="dollar_amount" style="swimlane;html=1;fontStyle=0;childLayout=stackLayout;horizontal=1;startSize=30;fillColor=#a0a0a0;horizontalStack=0;resizeParent=1;resizeLast=0;collapsible=1;marginBottom=0;swimlaneFillColor=#ffffff;align=center;rounded=0;shadow=0;comic=0;labelBackgroundColor=none;strokeWidth=2;fontFamily=Verdana;fontSize=14;editable=1;movable=1;resizable=1;rotatable=1;deletable=1;locked=0;connectable=1;enumerate=0;strokeColor=#007FFF;fontColor=#000000;spacing=2;spacingBottom=5;" parent="1" vertex="1">
          <mxGeometry x="-1935" y="758" width="140" height="90" as="geometry" />
        </mxCell>
        <mxCell id="5XdCu-Sr5xr-vJQQU0_O-59" value="coupon_id" style="shape=partialRectangle;top=0;left=0;right=0;bottom=1;html=1;align=left;verticalAlign=middle;fillColor=none;spacingLeft=60;spacingRight=4;whiteSpace=wrap;overflow=hidden;rotatable=1;points=[[0,0.5],[1,0.5]];portConstraint=eastwest;dropTarget=0;fontStyle=5;editable=1;movable=1;resizable=1;deletable=1;locked=0;connectable=1;comic=0;enumerate=0;strokeColor=#007FFF;" parent="5XdCu-Sr5xr-vJQQU0_O-58" vertex="1">
          <mxGeometry y="30" width="140" height="30" as="geometry" />
        </mxCell>
        <mxCell id="5XdCu-Sr5xr-vJQQU0_O-60" value="PK,FK1" style="shape=partialRectangle;fontStyle=1;top=0;left=0;bottom=0;html=1;fillColor=none;align=left;verticalAlign=middle;spacingLeft=4;spacingRight=4;whiteSpace=wrap;overflow=hidden;rotatable=1;points=[];portConstraint=eastwest;part=1;editable=1;movable=1;resizable=1;deletable=1;locked=0;connectable=1;comic=0;enumerate=0;" parent="5XdCu-Sr5xr-vJQQU0_O-59" vertex="1" connectable="0">
          <mxGeometry width="60" height="30" as="geometry" />
        </mxCell>
        <mxCell id="5XdCu-Sr5xr-vJQQU0_O-61" value="dollars_off" style="shape=partialRectangle;top=0;left=0;right=0;bottom=0;html=1;align=left;verticalAlign=top;fillColor=none;spacingLeft=60;spacingRight=4;whiteSpace=wrap;overflow=hidden;rotatable=1;points=[[0,0.5],[1,0.5]];portConstraint=eastwest;dropTarget=0;editable=1;movable=1;resizable=1;deletable=1;locked=0;connectable=1;comic=0;enumerate=0;fontStyle=1" parent="5XdCu-Sr5xr-vJQQU0_O-58" vertex="1">
          <mxGeometry y="60" width="140" height="30" as="geometry" />
        </mxCell>
        <mxCell id="5XdCu-Sr5xr-vJQQU0_O-62" value="" style="shape=partialRectangle;top=0;left=0;bottom=0;html=1;fillColor=none;align=left;verticalAlign=top;spacingLeft=4;spacingRight=4;whiteSpace=wrap;overflow=hidden;rotatable=1;points=[];portConstraint=eastwest;part=1;editable=1;movable=1;resizable=1;deletable=1;locked=0;connectable=1;comic=0;enumerate=0;fontStyle=1" parent="5XdCu-Sr5xr-vJQQU0_O-61" vertex="1" connectable="0">
          <mxGeometry width="60" height="30" as="geometry" />
        </mxCell>
        <UserObject label="&lt;span style=&quot;&quot;&gt;&lt;font&gt;order&lt;/font&gt;&lt;/span&gt;" tags="" id="XRP2DXV7LQ1C8lFrC8NO-67">
          <mxCell style="swimlane;html=1;fontStyle=0;childLayout=stackLayout;horizontal=1;startSize=30;fillColor=#a0a0a0;horizontalStack=0;resizeParent=1;resizeLast=0;collapsible=1;marginBottom=0;swimlaneFillColor=#ffffff;align=center;rounded=0;shadow=0;comic=0;labelBackgroundColor=none;strokeWidth=2;fontFamily=Verdana;fontSize=14;editable=1;movable=1;resizable=1;rotatable=1;deletable=1;locked=0;connectable=1;enumerate=0;strokeColor=#007FFF;fontColor=#000000;verticalAlign=middle;spacing=2;spacingBottom=5;" parent="1" vertex="1">
            <mxGeometry x="-2395" y="40" width="635" height="180" as="geometry" />
          </mxCell>
        </UserObject>
        <mxCell id="XRP2DXV7LQ1C8lFrC8NO-68" value="order_id" style="shape=partialRectangle;top=0;left=0;right=0;bottom=1;html=1;align=left;verticalAlign=middle;fillColor=none;spacingLeft=34;spacingRight=4;whiteSpace=wrap;overflow=hidden;rotatable=1;points=[[0,0.5],[1,0.5]];portConstraint=eastwest;dropTarget=0;fontStyle=5;movable=1;resizable=1;deletable=1;editable=1;locked=0;connectable=1;comic=0;enumerate=0;strokeWidth=2;strokeColor=#007FFF;" parent="XRP2DXV7LQ1C8lFrC8NO-67" vertex="1">
          <mxGeometry y="30" width="635" height="30" as="geometry" />
        </mxCell>
        <mxCell id="XRP2DXV7LQ1C8lFrC8NO-69" value="PK" style="shape=partialRectangle;top=0;left=0;bottom=0;html=1;fillColor=none;align=left;verticalAlign=middle;spacingLeft=4;spacingRight=4;whiteSpace=wrap;overflow=hidden;rotatable=1;points=[];portConstraint=eastwest;part=1;movable=1;resizable=1;deletable=1;editable=1;locked=0;connectable=1;comic=0;enumerate=0;fontStyle=1" parent="XRP2DXV7LQ1C8lFrC8NO-68" vertex="1" connectable="0">
          <mxGeometry width="30" height="30" as="geometry" />
        </mxCell>
        <mxCell id="XRP2DXV7LQ1C8lFrC8NO-88" value="order_type" style="shape=partialRectangle;top=0;left=0;right=0;bottom=0;html=1;align=left;verticalAlign=middle;fillColor=none;spacingLeft=34;spacingRight=4;whiteSpace=wrap;overflow=hidden;rotatable=1;points=[[0,0.5],[1,0.5]];portConstraint=eastwest;dropTarget=0;movable=1;resizable=1;deletable=1;editable=1;locked=0;connectable=1;comic=0;enumerate=0;fontStyle=1" parent="XRP2DXV7LQ1C8lFrC8NO-67" vertex="1">
          <mxGeometry y="60" width="635" height="20" as="geometry" />
        </mxCell>
        <mxCell id="XRP2DXV7LQ1C8lFrC8NO-89" value="" style="shape=partialRectangle;top=0;left=0;bottom=0;html=1;fillColor=none;align=left;verticalAlign=middle;spacingLeft=4;spacingRight=4;whiteSpace=wrap;overflow=hidden;rotatable=1;points=[];portConstraint=eastwest;part=1;movable=1;resizable=1;deletable=1;editable=1;locked=0;connectable=1;comic=0;enumerate=0;fontStyle=1" parent="XRP2DXV7LQ1C8lFrC8NO-88" vertex="1" connectable="0">
          <mxGeometry width="30" height="20" as="geometry" />
        </mxCell>
        <mxCell id="XRP2DXV7LQ1C8lFrC8NO-92" value="time_requested" style="shape=partialRectangle;top=0;left=0;right=0;bottom=0;html=1;align=left;verticalAlign=middle;fillColor=none;spacingLeft=34;spacingRight=4;whiteSpace=wrap;overflow=hidden;rotatable=1;points=[[0,0.5],[1,0.5]];portConstraint=eastwest;dropTarget=0;movable=1;resizable=1;deletable=1;editable=1;locked=0;connectable=1;comic=0;enumerate=0;fontStyle=1" parent="XRP2DXV7LQ1C8lFrC8NO-67" vertex="1">
          <mxGeometry y="80" width="635" height="20" as="geometry" />
        </mxCell>
        <mxCell id="XRP2DXV7LQ1C8lFrC8NO-93" value="" style="shape=partialRectangle;top=0;left=0;bottom=0;html=1;fillColor=none;align=left;verticalAlign=middle;spacingLeft=4;spacingRight=4;whiteSpace=wrap;overflow=hidden;rotatable=1;points=[];portConstraint=eastwest;part=1;movable=1;resizable=1;deletable=1;editable=1;locked=0;connectable=1;comic=0;enumerate=0;fontStyle=1" parent="XRP2DXV7LQ1C8lFrC8NO-92" vertex="1" connectable="0">
          <mxGeometry width="30" height="20" as="geometry" />
        </mxCell>
        <mxCell id="XRP2DXV7LQ1C8lFrC8NO-70" value="is_complete" style="shape=partialRectangle;top=0;left=0;right=0;bottom=0;html=1;align=left;verticalAlign=middle;fillColor=none;spacingLeft=34;spacingRight=4;whiteSpace=wrap;overflow=hidden;rotatable=1;points=[[0,0.5],[1,0.5]];portConstraint=eastwest;dropTarget=0;movable=1;resizable=1;deletable=1;editable=1;locked=0;connectable=1;comic=0;enumerate=0;fontStyle=1" parent="XRP2DXV7LQ1C8lFrC8NO-67" vertex="1">
          <mxGeometry y="100" width="635" height="20" as="geometry" />
        </mxCell>
        <mxCell id="XRP2DXV7LQ1C8lFrC8NO-71" value="" style="shape=partialRectangle;top=0;left=0;bottom=0;html=1;fillColor=none;align=left;verticalAlign=middle;spacingLeft=4;spacingRight=4;whiteSpace=wrap;overflow=hidden;rotatable=1;points=[];portConstraint=eastwest;part=1;movable=1;resizable=1;deletable=1;editable=1;locked=0;connectable=1;comic=0;enumerate=0;fontStyle=1" parent="XRP2DXV7LQ1C8lFrC8NO-70" vertex="1" connectable="0">
          <mxGeometry width="30" height="20" as="geometry" />
        </mxCell>
        <mxCell id="GkZeD6TET7VPJWkUDvar-7" value="business_cost" style="shape=partialRectangle;top=0;left=0;right=0;bottom=0;html=1;align=left;verticalAlign=middle;fillColor=none;spacingLeft=34;spacingRight=4;whiteSpace=wrap;overflow=hidden;rotatable=1;points=[[0,0.5],[1,0.5]];portConstraint=eastwest;dropTarget=0;movable=1;resizable=1;deletable=1;editable=1;locked=0;connectable=1;comic=0;enumerate=0;fontStyle=1" vertex="1" parent="XRP2DXV7LQ1C8lFrC8NO-67">
          <mxGeometry y="120" width="635" height="20" as="geometry" />
        </mxCell>
        <mxCell id="GkZeD6TET7VPJWkUDvar-8" value="" style="shape=partialRectangle;top=0;left=0;bottom=0;html=1;fillColor=none;align=left;verticalAlign=middle;spacingLeft=4;spacingRight=4;whiteSpace=wrap;overflow=hidden;rotatable=1;points=[];portConstraint=eastwest;part=1;movable=1;resizable=1;deletable=1;editable=1;locked=0;connectable=1;comic=0;enumerate=0;fontStyle=1" vertex="1" connectable="0" parent="GkZeD6TET7VPJWkUDvar-7">
          <mxGeometry width="30" height="20" as="geometry" />
        </mxCell>
        <mxCell id="GkZeD6TET7VPJWkUDvar-9" value="pre_discounts_price" style="shape=partialRectangle;top=0;left=0;right=0;bottom=0;html=1;align=left;verticalAlign=middle;fillColor=none;spacingLeft=34;spacingRight=4;whiteSpace=wrap;overflow=hidden;rotatable=1;points=[[0,0.5],[1,0.5]];portConstraint=eastwest;dropTarget=0;movable=1;resizable=1;deletable=1;editable=1;locked=0;connectable=1;comic=0;enumerate=0;fontStyle=1" vertex="1" parent="XRP2DXV7LQ1C8lFrC8NO-67">
          <mxGeometry y="140" width="635" height="20" as="geometry" />
        </mxCell>
        <mxCell id="GkZeD6TET7VPJWkUDvar-10" value="" style="shape=partialRectangle;top=0;left=0;bottom=0;html=1;fillColor=none;align=left;verticalAlign=middle;spacingLeft=4;spacingRight=4;whiteSpace=wrap;overflow=hidden;rotatable=1;points=[];portConstraint=eastwest;part=1;movable=1;resizable=1;deletable=1;editable=1;locked=0;connectable=1;comic=0;enumerate=0;fontStyle=1" vertex="1" connectable="0" parent="GkZeD6TET7VPJWkUDvar-9">
          <mxGeometry width="30" height="20" as="geometry" />
        </mxCell>
        <mxCell id="GkZeD6TET7VPJWkUDvar-24" value="post_discounts_price" style="shape=partialRectangle;top=0;left=0;right=0;bottom=0;html=1;align=left;verticalAlign=middle;fillColor=none;spacingLeft=34;spacingRight=4;whiteSpace=wrap;overflow=hidden;rotatable=1;points=[[0,0.5],[1,0.5]];portConstraint=eastwest;dropTarget=0;movable=1;resizable=1;deletable=1;editable=1;locked=0;connectable=1;comic=0;enumerate=0;fontStyle=1" vertex="1" parent="XRP2DXV7LQ1C8lFrC8NO-67">
          <mxGeometry y="160" width="635" height="20" as="geometry" />
        </mxCell>
        <mxCell id="GkZeD6TET7VPJWkUDvar-25" value="" style="shape=partialRectangle;top=0;left=0;bottom=0;html=1;fillColor=none;align=left;verticalAlign=middle;spacingLeft=4;spacingRight=4;whiteSpace=wrap;overflow=hidden;rotatable=1;points=[];portConstraint=eastwest;part=1;movable=1;resizable=1;deletable=1;editable=1;locked=0;connectable=1;comic=0;enumerate=0;fontStyle=1" vertex="1" connectable="0" parent="GkZeD6TET7VPJWkUDvar-24">
          <mxGeometry width="30" height="20" as="geometry" />
        </mxCell>
        <mxCell id="ft23h2SvaQS1Ued9Bh15-1" value="&lt;span style=&quot;font-weight: normal;&quot;&gt;&lt;font color=&quot;#000000&quot;&gt;delivery_customer&lt;/font&gt;&lt;/span&gt;" style="swimlane;html=1;fontStyle=0;childLayout=stackLayout;horizontal=1;startSize=22;fillColor=#a0a0a0;horizontalStack=0;resizeParent=1;resizeLast=0;collapsible=1;marginBottom=0;swimlaneFillColor=#ffffff;align=center;rounded=0;shadow=0;comic=0;labelBackgroundColor=none;strokeWidth=2;fontFamily=Verdana;fontSize=14;editable=1;movable=1;resizable=1;rotatable=1;deletable=1;locked=0;connectable=1;enumerate=0;strokeColor=#007FFF;fontColor=#000000;verticalAlign=middle;spacing=2;spacingBottom=5;" parent="1" vertex="1">
          <mxGeometry x="-2275" y="708" width="160" height="140" as="geometry" />
        </mxCell>
        <mxCell id="ft23h2SvaQS1Ued9Bh15-2" value="customer_id" style="shape=partialRectangle;top=0;left=0;right=0;bottom=1;html=1;align=left;verticalAlign=middle;fillColor=none;spacingLeft=60;spacingRight=4;whiteSpace=wrap;overflow=hidden;rotatable=1;points=[[0,0.5],[1,0.5]];portConstraint=eastwest;dropTarget=0;fontStyle=5;editable=1;movable=1;resizable=1;deletable=1;locked=0;connectable=1;comic=0;enumerate=0;strokeColor=#007FFF;" parent="ft23h2SvaQS1Ued9Bh15-1" vertex="1">
          <mxGeometry y="22" width="160" height="18" as="geometry" />
        </mxCell>
        <mxCell id="ft23h2SvaQS1Ued9Bh15-3" value="PK,FK1" style="shape=partialRectangle;fontStyle=1;top=0;left=0;bottom=0;html=1;fillColor=none;align=left;verticalAlign=middle;spacingLeft=4;spacingRight=4;whiteSpace=wrap;overflow=hidden;rotatable=1;points=[];portConstraint=eastwest;part=1;editable=1;movable=1;resizable=1;deletable=1;locked=0;connectable=1;comic=0;enumerate=0;" parent="ft23h2SvaQS1Ued9Bh15-2" vertex="1" connectable="0">
          <mxGeometry width="60" height="18" as="geometry" />
        </mxCell>
        <mxCell id="ft23h2SvaQS1Ued9Bh15-4" value="street_num" style="shape=partialRectangle;top=0;left=0;right=0;bottom=0;html=1;align=left;verticalAlign=middle;fillColor=none;spacingLeft=60;spacingRight=4;whiteSpace=wrap;overflow=hidden;rotatable=1;points=[[0,0.5],[1,0.5]];portConstraint=eastwest;dropTarget=0;editable=1;movable=1;resizable=1;deletable=1;locked=0;connectable=1;comic=0;enumerate=0;fontStyle=1" parent="ft23h2SvaQS1Ued9Bh15-1" vertex="1">
          <mxGeometry y="40" width="160" height="20" as="geometry" />
        </mxCell>
        <mxCell id="ft23h2SvaQS1Ued9Bh15-5" value="" style="shape=partialRectangle;top=0;left=0;bottom=0;html=1;fillColor=none;align=left;verticalAlign=top;spacingLeft=4;spacingRight=4;whiteSpace=wrap;overflow=hidden;rotatable=1;points=[];portConstraint=eastwest;part=1;editable=1;movable=1;resizable=1;deletable=1;locked=0;connectable=1;comic=0;enumerate=0;fontStyle=1" parent="ft23h2SvaQS1Ued9Bh15-4" vertex="1" connectable="0">
          <mxGeometry width="60" height="20" as="geometry" />
        </mxCell>
        <mxCell id="aJEdRUJ3gJoqMp5k8vDi-36" value="street_name" style="shape=partialRectangle;top=0;left=0;right=0;bottom=0;html=1;align=left;verticalAlign=middle;fillColor=none;spacingLeft=60;spacingRight=4;whiteSpace=wrap;overflow=hidden;rotatable=1;points=[[0,0.5],[1,0.5]];portConstraint=eastwest;dropTarget=0;editable=1;movable=1;resizable=1;deletable=1;locked=0;connectable=1;comic=0;enumerate=0;fontStyle=1" parent="ft23h2SvaQS1Ued9Bh15-1" vertex="1">
          <mxGeometry y="60" width="160" height="20" as="geometry" />
        </mxCell>
        <mxCell id="aJEdRUJ3gJoqMp5k8vDi-37" value="" style="shape=partialRectangle;top=0;left=0;bottom=0;html=1;fillColor=none;align=left;verticalAlign=top;spacingLeft=4;spacingRight=4;whiteSpace=wrap;overflow=hidden;rotatable=1;points=[];portConstraint=eastwest;part=1;editable=1;movable=1;resizable=1;deletable=1;locked=0;connectable=1;comic=0;enumerate=0;fontStyle=1" parent="aJEdRUJ3gJoqMp5k8vDi-36" vertex="1" connectable="0">
          <mxGeometry width="60" height="20" as="geometry" />
        </mxCell>
        <mxCell id="aJEdRUJ3gJoqMp5k8vDi-42" value="unit" style="shape=partialRectangle;top=0;left=0;right=0;bottom=0;html=1;align=left;verticalAlign=middle;fillColor=none;spacingLeft=60;spacingRight=4;whiteSpace=wrap;overflow=hidden;rotatable=1;points=[[0,0.5],[1,0.5]];portConstraint=eastwest;dropTarget=0;editable=1;movable=1;resizable=1;deletable=1;locked=0;connectable=1;comic=0;enumerate=0;fontStyle=1" parent="ft23h2SvaQS1Ued9Bh15-1" vertex="1">
          <mxGeometry y="80" width="160" height="20" as="geometry" />
        </mxCell>
        <mxCell id="aJEdRUJ3gJoqMp5k8vDi-43" value="" style="shape=partialRectangle;top=0;left=0;bottom=0;html=1;fillColor=none;align=left;verticalAlign=top;spacingLeft=4;spacingRight=4;whiteSpace=wrap;overflow=hidden;rotatable=1;points=[];portConstraint=eastwest;part=1;editable=1;movable=1;resizable=1;deletable=1;locked=0;connectable=1;comic=0;enumerate=0;fontStyle=1" parent="aJEdRUJ3gJoqMp5k8vDi-42" vertex="1" connectable="0">
          <mxGeometry width="60" height="20" as="geometry" />
        </mxCell>
        <mxCell id="aJEdRUJ3gJoqMp5k8vDi-38" value="state" style="shape=partialRectangle;top=0;left=0;right=0;bottom=0;html=1;align=left;verticalAlign=middle;fillColor=none;spacingLeft=60;spacingRight=4;whiteSpace=wrap;overflow=hidden;rotatable=1;points=[[0,0.5],[1,0.5]];portConstraint=eastwest;dropTarget=0;editable=1;movable=1;resizable=1;deletable=1;locked=0;connectable=1;comic=0;enumerate=0;fontStyle=1" parent="ft23h2SvaQS1Ued9Bh15-1" vertex="1">
          <mxGeometry y="100" width="160" height="20" as="geometry" />
        </mxCell>
        <mxCell id="aJEdRUJ3gJoqMp5k8vDi-39" value="" style="shape=partialRectangle;top=0;left=0;bottom=0;html=1;fillColor=none;align=left;verticalAlign=top;spacingLeft=4;spacingRight=4;whiteSpace=wrap;overflow=hidden;rotatable=1;points=[];portConstraint=eastwest;part=1;editable=1;movable=1;resizable=1;deletable=1;locked=0;connectable=1;comic=0;enumerate=0;fontStyle=1" parent="aJEdRUJ3gJoqMp5k8vDi-38" vertex="1" connectable="0">
          <mxGeometry width="60" height="20" as="geometry" />
        </mxCell>
        <mxCell id="aJEdRUJ3gJoqMp5k8vDi-40" value="zip" style="shape=partialRectangle;top=0;left=0;right=0;bottom=0;html=1;align=left;verticalAlign=middle;fillColor=none;spacingLeft=60;spacingRight=4;whiteSpace=wrap;overflow=hidden;rotatable=1;points=[[0,0.5],[1,0.5]];portConstraint=eastwest;dropTarget=0;editable=1;movable=1;resizable=1;deletable=1;locked=0;connectable=1;comic=0;enumerate=0;fontStyle=1" parent="ft23h2SvaQS1Ued9Bh15-1" vertex="1">
          <mxGeometry y="120" width="160" height="20" as="geometry" />
        </mxCell>
        <mxCell id="aJEdRUJ3gJoqMp5k8vDi-41" value="" style="shape=partialRectangle;top=0;left=0;bottom=0;html=1;fillColor=none;align=left;verticalAlign=top;spacingLeft=4;spacingRight=4;whiteSpace=wrap;overflow=hidden;rotatable=1;points=[];portConstraint=eastwest;part=1;editable=1;movable=1;resizable=1;deletable=1;locked=0;connectable=1;comic=0;enumerate=0;fontStyle=1" parent="aJEdRUJ3gJoqMp5k8vDi-40" vertex="1" connectable="0">
          <mxGeometry width="60" height="20" as="geometry" />
        </mxCell>
        <mxCell id="XRP2DXV7LQ1C8lFrC8NO-123" value="&lt;p style=&quot;line-height: 110%;&quot;&gt;&lt;/p&gt;&lt;div style=&quot;line-height: 110%;&quot;&gt;&lt;span style=&quot;background-color: initial; font-weight: normal;&quot;&gt;&lt;font color=&quot;#050505&quot;&gt;dine_in&lt;/font&gt;&lt;/span&gt;&lt;/div&gt;&lt;p&gt;&lt;/p&gt;" style="swimlane;html=1;fontStyle=1;childLayout=stackLayout;horizontal=1;startSize=30;fillColor=#a0a0a0;horizontalStack=0;resizeParent=1;resizeLast=0;collapsible=1;marginBottom=0;swimlaneFillColor=#ffffff;align=center;rounded=0;shadow=0;comic=0;labelBackgroundColor=none;strokeWidth=2;fontFamily=Verdana;fontSize=14;editable=1;movable=1;resizable=1;rotatable=1;deletable=1;locked=0;connectable=1;enumerate=0;strokeColor=#007FFF;fontColor=#ffffff;verticalAlign=middle;spacing=2;spacingBottom=5;" parent="1" vertex="1">
          <mxGeometry x="-2075" y="368" width="120" height="70" as="geometry" />
        </mxCell>
        <mxCell id="XRP2DXV7LQ1C8lFrC8NO-124" value="order_id" style="shape=partialRectangle;top=0;left=0;right=0;bottom=1;html=1;align=left;verticalAlign=middle;fillColor=none;spacingLeft=60;spacingRight=4;whiteSpace=wrap;overflow=hidden;rotatable=1;points=[[0,0.5],[1,0.5]];portConstraint=eastwest;dropTarget=0;fontStyle=5;editable=1;movable=1;resizable=1;deletable=1;locked=0;connectable=1;comic=0;enumerate=0;strokeColor=#007FFF;strokeWidth=2;" parent="XRP2DXV7LQ1C8lFrC8NO-123" vertex="1">
          <mxGeometry y="30" width="120" height="20" as="geometry" />
        </mxCell>
        <mxCell id="XRP2DXV7LQ1C8lFrC8NO-125" value="PK,FK1" style="shape=partialRectangle;fontStyle=1;top=0;left=0;bottom=0;html=1;fillColor=none;align=left;verticalAlign=middle;spacingLeft=4;spacingRight=4;whiteSpace=wrap;overflow=hidden;rotatable=1;points=[];portConstraint=eastwest;part=1;editable=1;movable=1;resizable=1;deletable=1;locked=0;connectable=1;comic=0;enumerate=0;" parent="XRP2DXV7LQ1C8lFrC8NO-124" vertex="1" connectable="0">
          <mxGeometry width="60" height="20" as="geometry" />
        </mxCell>
        <mxCell id="XRP2DXV7LQ1C8lFrC8NO-126" value="&lt;span&gt;table&lt;/span&gt;" style="shape=partialRectangle;top=0;left=0;right=0;bottom=0;html=1;align=left;verticalAlign=middle;fillColor=none;spacingLeft=60;spacingRight=4;whiteSpace=wrap;overflow=hidden;rotatable=1;points=[[0,0.5],[1,0.5]];portConstraint=eastwest;dropTarget=0;editable=1;movable=1;resizable=1;deletable=1;locked=0;connectable=1;comic=0;enumerate=0;strokeWidth=1;fontStyle=1" parent="XRP2DXV7LQ1C8lFrC8NO-123" vertex="1">
          <mxGeometry y="50" width="120" height="20" as="geometry" />
        </mxCell>
        <mxCell id="XRP2DXV7LQ1C8lFrC8NO-127" value="" style="shape=partialRectangle;top=0;left=0;bottom=0;html=1;fillColor=none;align=left;verticalAlign=top;spacingLeft=4;spacingRight=4;whiteSpace=wrap;overflow=hidden;rotatable=1;points=[];portConstraint=eastwest;part=1;editable=1;movable=1;resizable=1;deletable=1;locked=0;connectable=1;comic=0;enumerate=0;fontStyle=1" parent="XRP2DXV7LQ1C8lFrC8NO-126" vertex="1" connectable="0">
          <mxGeometry width="60" height="20" as="geometry" />
        </mxCell>
        <mxCell id="XRP2DXV7LQ1C8lFrC8NO-319" value="&lt;span style=&quot;font-weight: normal;&quot;&gt;&lt;font color=&quot;#000000&quot;&gt;delivery&lt;/font&gt;&lt;/span&gt;" style="swimlane;html=1;fontStyle=0;childLayout=stackLayout;horizontal=1;startSize=30;fillColor=#a0a0a0;horizontalStack=0;resizeParent=1;resizeLast=0;collapsible=1;marginBottom=0;swimlaneFillColor=#ffffff;align=center;rounded=0;shadow=0;comic=0;labelBackgroundColor=none;strokeWidth=2;fontFamily=Verdana;fontSize=14;editable=1;movable=1;resizable=1;rotatable=1;deletable=1;locked=0;connectable=1;enumerate=0;strokeColor=#007FFF;fontColor=#000000;verticalAlign=middle;spacing=2;spacingBottom=5;" parent="1" vertex="1">
          <mxGeometry x="-2395" y="368" width="140" height="70" as="geometry" />
        </mxCell>
        <mxCell id="XRP2DXV7LQ1C8lFrC8NO-320" value="order_id" style="shape=partialRectangle;top=0;left=0;right=0;bottom=1;html=1;align=left;verticalAlign=middle;fillColor=none;spacingLeft=60;spacingRight=4;whiteSpace=wrap;overflow=hidden;rotatable=1;points=[[0,0.5],[1,0.5]];portConstraint=eastwest;dropTarget=0;fontStyle=5;editable=1;movable=1;resizable=1;deletable=1;locked=0;connectable=1;comic=0;enumerate=0;strokeColor=#007FFF;" parent="XRP2DXV7LQ1C8lFrC8NO-319" vertex="1">
          <mxGeometry y="30" width="140" height="20" as="geometry" />
        </mxCell>
        <mxCell id="XRP2DXV7LQ1C8lFrC8NO-321" value="PK,FK1" style="shape=partialRectangle;fontStyle=1;top=0;left=0;bottom=0;html=1;fillColor=none;align=left;verticalAlign=middle;spacingLeft=4;spacingRight=4;whiteSpace=wrap;overflow=hidden;rotatable=1;points=[];portConstraint=eastwest;part=1;editable=1;movable=1;resizable=1;deletable=1;locked=0;connectable=1;comic=0;enumerate=0;" parent="XRP2DXV7LQ1C8lFrC8NO-320" vertex="1" connectable="0">
          <mxGeometry width="60" height="20" as="geometry" />
        </mxCell>
        <mxCell id="XRP2DXV7LQ1C8lFrC8NO-324" value="customer_id" style="shape=partialRectangle;top=0;left=0;right=0;bottom=0;html=1;align=left;verticalAlign=middle;fillColor=none;spacingLeft=60;spacingRight=4;whiteSpace=wrap;overflow=hidden;rotatable=1;points=[[0,0.5],[1,0.5]];portConstraint=eastwest;dropTarget=0;editable=1;movable=1;resizable=1;deletable=1;locked=0;connectable=1;comic=0;enumerate=0;fontStyle=1" parent="XRP2DXV7LQ1C8lFrC8NO-319" vertex="1">
          <mxGeometry y="50" width="140" height="20" as="geometry" />
        </mxCell>
        <mxCell id="XRP2DXV7LQ1C8lFrC8NO-325" value="&amp;nbsp; &amp;nbsp; &amp;nbsp; FK2" style="shape=partialRectangle;top=0;left=0;bottom=0;html=1;fillColor=none;align=left;verticalAlign=middle;spacingLeft=4;spacingRight=4;whiteSpace=wrap;overflow=hidden;rotatable=1;points=[];portConstraint=eastwest;part=1;editable=1;movable=1;resizable=1;deletable=1;locked=0;connectable=1;comic=0;enumerate=0;fontStyle=1" parent="XRP2DXV7LQ1C8lFrC8NO-324" vertex="1" connectable="0">
          <mxGeometry width="60" height="20" as="geometry" />
        </mxCell>
        <mxCell id="5XdCu-Sr5xr-vJQQU0_O-57" value="" style="group;movable=1;resizable=1;rotatable=1;deletable=1;editable=1;locked=0;connectable=1;fontStyle=1" parent="1" vertex="1" connectable="0">
          <mxGeometry x="-2210" y="663.64" width="125" height="34" as="geometry" />
        </mxCell>
        <mxCell id="ft23h2SvaQS1Ued9Bh15-880" value="" style="group" parent="5XdCu-Sr5xr-vJQQU0_O-57" vertex="1" connectable="0">
          <mxGeometry x="-8" y="-14.5" width="133" height="34" as="geometry" />
        </mxCell>
        <mxCell id="5XdCu-Sr5xr-vJQQU0_O-38" value="&lt;span&gt;has_address&lt;/span&gt;" style="text;html=1;align=center;verticalAlign=middle;resizable=1;points=[];autosize=1;strokeColor=none;fillColor=none;movable=1;rotatable=1;deletable=1;editable=1;locked=0;connectable=1;comic=0;enumerate=0;fontStyle=1" parent="ft23h2SvaQS1Ued9Bh15-880" vertex="1">
          <mxGeometry x="33" width="100" height="30" as="geometry" />
        </mxCell>
        <mxCell id="5XdCu-Sr5xr-vJQQU0_O-36" value="" style="ellipse;whiteSpace=wrap;html=1;aspect=fixed;movable=1;resizable=1;rotatable=1;deletable=1;editable=1;locked=0;connectable=1;comic=0;enumerate=0;fontStyle=1" parent="5XdCu-Sr5xr-vJQQU0_O-57" vertex="1">
          <mxGeometry y="-14.5" width="30" height="30" as="geometry" />
        </mxCell>
        <mxCell id="5XdCu-Sr5xr-vJQQU0_O-37" value="" style="endArrow=none;html=1;rounded=0;targetPerimeterSpacing=0;strokeWidth=4;shadow=0;movable=1;resizable=1;rotatable=1;deletable=1;editable=1;locked=0;connectable=1;comic=0;enumerate=0;fontStyle=1" parent="5XdCu-Sr5xr-vJQQU0_O-57" edge="1">
          <mxGeometry width="50" height="50" relative="1" as="geometry">
            <mxPoint x="-8" y="19.5" as="sourcePoint" />
            <mxPoint x="42" y="19.5" as="targetPoint" />
            <Array as="points" />
          </mxGeometry>
        </mxCell>
        <mxCell id="ft23h2SvaQS1Ued9Bh15-887" style="edgeStyle=orthogonalEdgeStyle;shape=connector;rounded=0;comic=0;orthogonalLoop=1;jettySize=auto;html=1;exitX=0.5;exitY=0;exitDx=0;exitDy=0;labelBackgroundColor=default;strokeColor=default;strokeWidth=1;align=center;verticalAlign=middle;fontFamily=Helvetica;fontSize=11;fontColor=#990000;startArrow=none;startFill=0;endArrow=none;endFill=0;" parent="1" source="ft23h2SvaQS1Ued9Bh15-882" target="XRP2DXV7LQ1C8lFrC8NO-154" edge="1">
          <mxGeometry relative="1" as="geometry">
            <mxPoint x="-1734.9523809523812" y="598" as="targetPoint" />
            <Array as="points">
              <mxPoint x="-1735" y="668" />
            </Array>
          </mxGeometry>
        </mxCell>
        <mxCell id="ft23h2SvaQS1Ued9Bh15-883" value="" style="endArrow=none;html=1;rounded=0;targetPerimeterSpacing=0;strokeWidth=4;shadow=0;movable=1;resizable=1;rotatable=1;deletable=1;editable=1;locked=0;connectable=1;comic=0;enumerate=0;fontStyle=1;shape=link;" parent="1" edge="1">
          <mxGeometry width="50" height="50" relative="1" as="geometry">
            <mxPoint x="-1760" y="689.82" as="sourcePoint" />
            <mxPoint x="-1710" y="689.82" as="targetPoint" />
            <Array as="points" />
          </mxGeometry>
        </mxCell>
        <mxCell id="ft23h2SvaQS1Ued9Bh15-882" value="&lt;span style=&quot;font-size: 24px;&quot;&gt;&lt;span&gt;d&lt;/span&gt;&lt;/span&gt;" style="ellipse;whiteSpace=wrap;html=1;aspect=fixed;movable=1;resizable=1;rotatable=1;deletable=1;editable=1;locked=0;connectable=1;comic=0;enumerate=0;fontStyle=1" parent="1" vertex="1">
          <mxGeometry x="-1753" y="649.82" width="30" height="30" as="geometry" />
        </mxCell>
        <mxCell id="ft23h2SvaQS1Ued9Bh15-891" value="discount_type" style="text;html=1;align=left;verticalAlign=middle;resizable=1;points=[];autosize=1;strokeColor=none;fillColor=none;movable=1;rotatable=1;deletable=1;editable=1;locked=0;connectable=1;comic=0;enumerate=0;fontStyle=1" parent="1" vertex="1">
          <mxGeometry x="-1718.0010526315791" y="645.4600000000002" width="100" height="30" as="geometry" />
        </mxCell>
        <mxCell id="ft23h2SvaQS1Ued9Bh15-895" value="base_pizza" style="swimlane;html=1;fontStyle=0;childLayout=stackLayout;horizontal=1;startSize=22;fillColor=#a0a0a0;horizontalStack=0;resizeParent=1;resizeLast=0;collapsible=1;marginBottom=0;swimlaneFillColor=#ffffff;align=center;rounded=0;shadow=0;comic=0;labelBackgroundColor=none;strokeWidth=2;fontFamily=Verdana;fontSize=14;editable=1;movable=1;resizable=1;rotatable=1;deletable=1;locked=0;connectable=1;enumerate=0;swimlaneLine=1;glass=0;gradientColor=none;container=1;strokeColor=#007FFF;fontColor=#000000;spacing=2;spacingBottom=5;" parent="1" vertex="1">
          <mxGeometry x="-1407.5" y="88" width="185" height="122" as="geometry" />
        </mxCell>
        <mxCell id="ft23h2SvaQS1Ued9Bh15-896" value="base_pizza_id" style="shape=partialRectangle;top=0;left=0;right=0;bottom=1;html=1;align=left;verticalAlign=middle;fillColor=none;spacingLeft=34;spacingRight=4;whiteSpace=wrap;overflow=hidden;rotatable=1;points=[[0,0.5],[1,0.5]];portConstraint=eastwest;dropTarget=0;fontStyle=5;editable=1;movable=1;resizable=1;deletable=1;locked=0;connectable=1;comic=0;enumerate=0;strokeColor=#007FFF;" parent="ft23h2SvaQS1Ued9Bh15-895" vertex="1">
          <mxGeometry y="22" width="185" height="18" as="geometry" />
        </mxCell>
        <mxCell id="ft23h2SvaQS1Ued9Bh15-897" value="PK" style="shape=partialRectangle;top=0;left=0;bottom=0;html=1;fillColor=none;align=left;verticalAlign=middle;spacingLeft=4;spacingRight=4;whiteSpace=wrap;overflow=hidden;rotatable=1;points=[];portConstraint=eastwest;part=1;editable=1;movable=1;resizable=1;deletable=1;locked=0;connectable=1;comic=0;enumerate=0;fontStyle=1" parent="ft23h2SvaQS1Ued9Bh15-896" vertex="1" connectable="0">
          <mxGeometry width="30" height="18" as="geometry" />
        </mxCell>
        <mxCell id="ft23h2SvaQS1Ued9Bh15-898" value="size" style="shape=partialRectangle;top=0;left=0;right=0;bottom=0;html=1;align=left;verticalAlign=top;fillColor=none;spacingLeft=34;spacingRight=4;whiteSpace=wrap;overflow=hidden;rotatable=1;points=[[0,0.5],[1,0.5]];portConstraint=eastwest;dropTarget=0;editable=1;movable=1;resizable=1;deletable=1;locked=0;connectable=1;comic=0;enumerate=0;fontStyle=1" parent="ft23h2SvaQS1Ued9Bh15-895" vertex="1">
          <mxGeometry y="40" width="185" height="20" as="geometry" />
        </mxCell>
        <mxCell id="ft23h2SvaQS1Ued9Bh15-899" value="" style="shape=partialRectangle;top=0;left=0;bottom=0;html=1;fillColor=none;align=left;verticalAlign=top;spacingLeft=4;spacingRight=4;whiteSpace=wrap;overflow=hidden;rotatable=1;points=[];portConstraint=eastwest;part=1;editable=1;movable=1;resizable=1;deletable=1;locked=0;connectable=1;comic=0;enumerate=0;fontStyle=1" parent="ft23h2SvaQS1Ued9Bh15-898" vertex="1" connectable="0">
          <mxGeometry width="30" height="20" as="geometry" />
        </mxCell>
        <mxCell id="ft23h2SvaQS1Ued9Bh15-900" value="crust" style="shape=partialRectangle;top=0;left=0;right=0;bottom=0;html=1;align=left;verticalAlign=middle;fillColor=none;spacingLeft=34;spacingRight=4;whiteSpace=wrap;overflow=hidden;rotatable=1;points=[[0,0.5],[1,0.5]];portConstraint=eastwest;dropTarget=0;editable=1;movable=1;resizable=1;deletable=1;locked=0;connectable=1;comic=0;enumerate=0;fontStyle=1" parent="ft23h2SvaQS1Ued9Bh15-895" vertex="1">
          <mxGeometry y="60" width="185" height="20" as="geometry" />
        </mxCell>
        <mxCell id="ft23h2SvaQS1Ued9Bh15-901" value="" style="shape=partialRectangle;top=0;left=0;bottom=0;html=1;fillColor=none;align=left;verticalAlign=top;spacingLeft=4;spacingRight=4;whiteSpace=wrap;overflow=hidden;rotatable=1;points=[];portConstraint=eastwest;part=1;editable=1;movable=1;resizable=1;deletable=1;locked=0;connectable=1;comic=0;enumerate=0;fontStyle=1" parent="ft23h2SvaQS1Ued9Bh15-900" vertex="1" connectable="0">
          <mxGeometry width="30" height="20" as="geometry" />
        </mxCell>
        <mxCell id="aJEdRUJ3gJoqMp5k8vDi-30" value="current_business_cost" style="shape=partialRectangle;top=0;left=0;right=0;bottom=0;html=1;align=left;verticalAlign=middle;fillColor=none;spacingLeft=34;spacingRight=4;whiteSpace=wrap;overflow=hidden;rotatable=1;points=[[0,0.5],[1,0.5]];portConstraint=eastwest;dropTarget=0;editable=1;movable=1;resizable=1;deletable=1;locked=0;connectable=1;comic=0;enumerate=0;fontStyle=1" parent="ft23h2SvaQS1Ued9Bh15-895" vertex="1">
          <mxGeometry y="80" width="185" height="20" as="geometry" />
        </mxCell>
        <mxCell id="aJEdRUJ3gJoqMp5k8vDi-31" value="" style="shape=partialRectangle;top=0;left=0;bottom=0;html=1;fillColor=none;align=left;verticalAlign=top;spacingLeft=4;spacingRight=4;whiteSpace=wrap;overflow=hidden;rotatable=1;points=[];portConstraint=eastwest;part=1;editable=1;movable=1;resizable=1;deletable=1;locked=0;connectable=1;comic=0;enumerate=0;fontStyle=1" parent="aJEdRUJ3gJoqMp5k8vDi-30" vertex="1" connectable="0">
          <mxGeometry width="30" height="20" as="geometry" />
        </mxCell>
        <mxCell id="aJEdRUJ3gJoqMp5k8vDi-32" value="current_price" style="shape=partialRectangle;top=0;left=0;right=0;bottom=0;html=1;align=left;verticalAlign=middle;fillColor=none;spacingLeft=34;spacingRight=4;whiteSpace=wrap;overflow=hidden;rotatable=1;points=[[0,0.5],[1,0.5]];portConstraint=eastwest;dropTarget=0;editable=1;movable=1;resizable=1;deletable=1;locked=0;connectable=1;comic=0;enumerate=0;fontStyle=1" parent="ft23h2SvaQS1Ued9Bh15-895" vertex="1">
          <mxGeometry y="100" width="185" height="20" as="geometry" />
        </mxCell>
        <mxCell id="aJEdRUJ3gJoqMp5k8vDi-33" value="" style="shape=partialRectangle;top=0;left=0;bottom=0;html=1;fillColor=none;align=left;verticalAlign=top;spacingLeft=4;spacingRight=4;whiteSpace=wrap;overflow=hidden;rotatable=1;points=[];portConstraint=eastwest;part=1;editable=1;movable=1;resizable=1;deletable=1;locked=0;connectable=1;comic=0;enumerate=0;fontStyle=1" parent="aJEdRUJ3gJoqMp5k8vDi-32" vertex="1" connectable="0">
          <mxGeometry width="30" height="20" as="geometry" />
        </mxCell>
        <mxCell id="ft23h2SvaQS1Ued9Bh15-923" style="rounded=0;orthogonalLoop=1;jettySize=auto;html=1;startArrow=ERmandOne;startFill=0;endArrow=ERzeroToMany;endFill=0;editable=1;movable=1;resizable=1;rotatable=1;deletable=1;locked=0;connectable=1;comic=0;enumerate=0;edgeStyle=orthogonalEdgeStyle;fontStyle=1;strokeWidth=2;fontColor=#990000;strokeColor=#990000;" parent="1" source="ft23h2SvaQS1Ued9Bh15-1" target="XRP2DXV7LQ1C8lFrC8NO-319" edge="1">
          <mxGeometry relative="1" as="geometry">
            <mxPoint x="-2215" y="843.6399999999999" as="sourcePoint" />
            <mxPoint x="-2095" y="723.6399999999999" as="targetPoint" />
            <Array as="points">
              <mxPoint x="-2365" y="808" />
            </Array>
          </mxGeometry>
        </mxCell>
        <mxCell id="ft23h2SvaQS1Ued9Bh15-924" value="placed by" style="edgeLabel;html=1;align=center;verticalAlign=middle;resizable=0;points=[];labelBorderColor=none;fontStyle=1;fontColor=#990000;labelBackgroundColor=#E9E2C8;" parent="ft23h2SvaQS1Ued9Bh15-923" vertex="1" connectable="0">
          <mxGeometry x="-0.0112" y="2" relative="1" as="geometry">
            <mxPoint x="2" y="-29" as="offset" />
          </mxGeometry>
        </mxCell>
        <mxCell id="5XdCu-Sr5xr-vJQQU0_O-44" value="" style="group;movable=1;resizable=1;rotatable=1;deletable=1;editable=1;locked=0;connectable=1;comic=0;enumerate=0;fontStyle=1" parent="1" vertex="1" connectable="0">
          <mxGeometry x="-2210" y="288" width="120" height="40" as="geometry" />
        </mxCell>
        <mxCell id="XRP2DXV7LQ1C8lFrC8NO-143" value="&lt;font style=&quot;font-size: 24px;&quot;&gt;&lt;span&gt;d&lt;/span&gt;&lt;/font&gt;" style="ellipse;whiteSpace=wrap;html=1;aspect=fixed;movable=1;resizable=1;rotatable=1;deletable=1;editable=1;locked=0;connectable=1;comic=0;enumerate=0;fontStyle=1" parent="5XdCu-Sr5xr-vJQQU0_O-44" vertex="1">
          <mxGeometry width="30" height="30" as="geometry" />
        </mxCell>
        <mxCell id="XRP2DXV7LQ1C8lFrC8NO-145" value="" style="endArrow=none;html=1;rounded=0;shape=link;width=4.4;targetPerimeterSpacing=0;strokeWidth=4;shadow=0;movable=1;resizable=1;rotatable=1;deletable=1;editable=1;locked=0;connectable=1;comic=0;enumerate=0;fontStyle=1" parent="5XdCu-Sr5xr-vJQQU0_O-44" edge="1">
          <mxGeometry width="50" height="50" relative="1" as="geometry">
            <mxPoint x="-8" y="40" as="sourcePoint" />
            <mxPoint x="42" y="40" as="targetPoint" />
            <Array as="points">
              <mxPoint x="20" y="40" />
            </Array>
          </mxGeometry>
        </mxCell>
        <mxCell id="XRP2DXV7LQ1C8lFrC8NO-148" value="&lt;span&gt;order_type&lt;/span&gt;" style="text;html=1;align=center;verticalAlign=middle;resizable=1;points=[];autosize=1;strokeColor=none;fillColor=none;movable=1;rotatable=1;deletable=1;editable=1;locked=0;connectable=1;comic=0;enumerate=0;fontStyle=1" parent="5XdCu-Sr5xr-vJQQU0_O-44" vertex="1">
          <mxGeometry x="25" width="90" height="30" as="geometry" />
        </mxCell>
        <mxCell id="ft23h2SvaQS1Ued9Bh15-926" style="rounded=0;orthogonalLoop=1;jettySize=auto;html=1;endArrow=none;endFill=0;entryX=0.5;entryY=1;entryDx=0;entryDy=0;editable=1;movable=1;resizable=1;rotatable=1;deletable=1;locked=0;connectable=1;comic=0;enumerate=0;edgeStyle=orthogonalEdgeStyle;fontStyle=1" parent="1" source="XRP2DXV7LQ1C8lFrC8NO-130" target="XRP2DXV7LQ1C8lFrC8NO-143" edge="1">
          <mxGeometry relative="1" as="geometry">
            <mxPoint x="-2220" y="318" as="targetPoint" />
            <mxPoint x="-2065" y="378" as="sourcePoint" />
            <Array as="points">
              <mxPoint x="-2195" y="338" />
              <mxPoint x="-2195" y="338" />
            </Array>
          </mxGeometry>
        </mxCell>
        <mxCell id="ft23h2SvaQS1Ued9Bh15-927" style="rounded=0;orthogonalLoop=1;jettySize=auto;html=1;endArrow=none;endFill=0;entryX=0.5;entryY=1;entryDx=0;entryDy=0;editable=1;movable=1;resizable=1;rotatable=1;deletable=1;locked=0;connectable=1;comic=0;enumerate=0;edgeStyle=orthogonalEdgeStyle;fontStyle=1" parent="1" source="XRP2DXV7LQ1C8lFrC8NO-319" target="XRP2DXV7LQ1C8lFrC8NO-143" edge="1">
          <mxGeometry relative="1" as="geometry">
            <mxPoint x="-2220" y="318" as="targetPoint" />
            <mxPoint x="-2065" y="378" as="sourcePoint" />
            <Array as="points">
              <mxPoint x="-2365" y="348" />
              <mxPoint x="-2195" y="348" />
            </Array>
          </mxGeometry>
        </mxCell>
        <mxCell id="aJEdRUJ3gJoqMp5k8vDi-50" value="pizza_purchase" style="swimlane;html=1;fontStyle=0;childLayout=stackLayout;horizontal=1;startSize=22;fillColor=#a0a0a0;horizontalStack=0;resizeParent=1;resizeLast=0;collapsible=1;marginBottom=0;swimlaneFillColor=#ffffff;align=center;rounded=0;shadow=0;comic=0;labelBackgroundColor=none;strokeWidth=2;fontFamily=Verdana;fontSize=14;editable=1;movable=1;resizable=1;rotatable=1;deletable=1;locked=0;connectable=1;enumerate=0;swimlaneLine=1;glass=0;gradientColor=none;container=1;strokeColor=#007FFF;fontColor=#000000;spacing=2;spacingBottom=5;" parent="1" vertex="1">
          <mxGeometry x="-1660" y="60" width="180" height="140" as="geometry" />
        </mxCell>
        <mxCell id="aJEdRUJ3gJoqMp5k8vDi-51" value="pizza_purchase_id" style="shape=partialRectangle;top=0;left=0;right=0;bottom=1;html=1;align=left;verticalAlign=middle;fillColor=none;spacingLeft=34;spacingRight=4;whiteSpace=wrap;overflow=hidden;rotatable=1;points=[[0,0.5],[1,0.5]];portConstraint=eastwest;dropTarget=0;fontStyle=5;editable=1;movable=1;resizable=1;deletable=1;locked=0;connectable=1;comic=0;enumerate=0;strokeColor=#007FFF;" parent="aJEdRUJ3gJoqMp5k8vDi-50" vertex="1">
          <mxGeometry y="22" width="180" height="18" as="geometry" />
        </mxCell>
        <mxCell id="aJEdRUJ3gJoqMp5k8vDi-52" value="PK" style="shape=partialRectangle;top=0;left=0;bottom=0;html=1;fillColor=none;align=left;verticalAlign=middle;spacingLeft=4;spacingRight=4;whiteSpace=wrap;overflow=hidden;rotatable=1;points=[];portConstraint=eastwest;part=1;editable=1;movable=1;resizable=1;deletable=1;locked=0;connectable=1;comic=0;enumerate=0;fontStyle=1" parent="aJEdRUJ3gJoqMp5k8vDi-51" vertex="1" connectable="0">
          <mxGeometry width="30" height="18" as="geometry" />
        </mxCell>
        <mxCell id="aJEdRUJ3gJoqMp5k8vDi-53" value="base_pizza_id" style="shape=partialRectangle;top=0;left=0;right=0;bottom=0;html=1;align=left;verticalAlign=bottom;fillColor=none;spacingLeft=34;spacingRight=4;whiteSpace=wrap;overflow=hidden;rotatable=1;points=[[0,0.5],[1,0.5]];portConstraint=eastwest;dropTarget=0;editable=1;movable=1;resizable=1;deletable=1;locked=0;connectable=1;comic=0;enumerate=0;fontStyle=1" parent="aJEdRUJ3gJoqMp5k8vDi-50" vertex="1">
          <mxGeometry y="40" width="180" height="20" as="geometry" />
        </mxCell>
        <mxCell id="aJEdRUJ3gJoqMp5k8vDi-54" value="&lt;font style=&quot;font-size: 11px;&quot;&gt;FK1&lt;/font&gt;" style="shape=partialRectangle;top=0;left=0;bottom=0;html=1;fillColor=none;align=left;verticalAlign=top;spacingLeft=4;spacingRight=4;whiteSpace=wrap;overflow=hidden;rotatable=1;points=[];portConstraint=eastwest;part=1;editable=1;movable=1;resizable=1;deletable=1;locked=0;connectable=1;comic=0;enumerate=0;fontStyle=1" parent="aJEdRUJ3gJoqMp5k8vDi-53" vertex="1" connectable="0">
          <mxGeometry width="30" height="20" as="geometry" />
        </mxCell>
        <mxCell id="aJEdRUJ3gJoqMp5k8vDi-55" value="order_id" style="shape=partialRectangle;top=0;left=0;right=0;bottom=0;html=1;align=left;verticalAlign=bottom;fillColor=none;spacingLeft=34;spacingRight=4;whiteSpace=wrap;overflow=hidden;rotatable=1;points=[[0,0.5],[1,0.5]];portConstraint=eastwest;dropTarget=0;editable=1;movable=1;resizable=1;deletable=1;locked=0;connectable=1;comic=0;enumerate=0;fontStyle=1" parent="aJEdRUJ3gJoqMp5k8vDi-50" vertex="1">
          <mxGeometry y="60" width="180" height="20" as="geometry" />
        </mxCell>
        <mxCell id="aJEdRUJ3gJoqMp5k8vDi-56" value="&lt;font style=&quot;font-size: 11px;&quot;&gt;FK2&lt;/font&gt;" style="shape=partialRectangle;top=0;left=0;bottom=0;html=1;fillColor=none;align=left;verticalAlign=top;spacingLeft=4;spacingRight=4;whiteSpace=wrap;overflow=hidden;rotatable=1;points=[];portConstraint=eastwest;part=1;editable=1;movable=1;resizable=1;deletable=1;locked=0;connectable=1;comic=0;enumerate=0;fontStyle=1" parent="aJEdRUJ3gJoqMp5k8vDi-55" vertex="1" connectable="0">
          <mxGeometry width="30" height="20" as="geometry" />
        </mxCell>
        <mxCell id="aJEdRUJ3gJoqMp5k8vDi-57" value="business_cost" style="shape=partialRectangle;top=0;left=0;right=0;bottom=0;html=1;align=left;verticalAlign=bottom;fillColor=none;spacingLeft=34;spacingRight=4;whiteSpace=wrap;overflow=hidden;rotatable=1;points=[[0,0.5],[1,0.5]];portConstraint=eastwest;dropTarget=0;editable=1;movable=1;resizable=1;deletable=1;locked=0;connectable=1;comic=0;enumerate=0;fontStyle=1" parent="aJEdRUJ3gJoqMp5k8vDi-50" vertex="1">
          <mxGeometry y="80" width="180" height="20" as="geometry" />
        </mxCell>
        <mxCell id="aJEdRUJ3gJoqMp5k8vDi-58" value="" style="shape=partialRectangle;top=0;left=0;bottom=0;html=1;fillColor=none;align=left;verticalAlign=top;spacingLeft=4;spacingRight=4;whiteSpace=wrap;overflow=hidden;rotatable=1;points=[];portConstraint=eastwest;part=1;editable=1;movable=1;resizable=1;deletable=1;locked=0;connectable=1;comic=0;enumerate=0;fontStyle=1" parent="aJEdRUJ3gJoqMp5k8vDi-57" vertex="1" connectable="0">
          <mxGeometry width="30" height="20" as="geometry" />
        </mxCell>
        <mxCell id="aJEdRUJ3gJoqMp5k8vDi-59" value="pre_discounts_price" style="shape=partialRectangle;top=0;left=0;right=0;bottom=0;html=1;align=left;verticalAlign=bottom;fillColor=none;spacingLeft=34;spacingRight=4;whiteSpace=wrap;overflow=hidden;rotatable=1;points=[[0,0.5],[1,0.5]];portConstraint=eastwest;dropTarget=0;editable=1;movable=1;resizable=1;deletable=1;locked=0;connectable=1;comic=0;enumerate=0;fontStyle=1" parent="aJEdRUJ3gJoqMp5k8vDi-50" vertex="1">
          <mxGeometry y="100" width="180" height="20" as="geometry" />
        </mxCell>
        <mxCell id="aJEdRUJ3gJoqMp5k8vDi-60" value="" style="shape=partialRectangle;top=0;left=0;bottom=0;html=1;fillColor=none;align=left;verticalAlign=top;spacingLeft=4;spacingRight=4;whiteSpace=wrap;overflow=hidden;rotatable=1;points=[];portConstraint=eastwest;part=1;editable=1;movable=1;resizable=1;deletable=1;locked=0;connectable=1;comic=0;enumerate=0;fontStyle=1" parent="aJEdRUJ3gJoqMp5k8vDi-59" vertex="1" connectable="0">
          <mxGeometry width="30" height="20" as="geometry" />
        </mxCell>
        <mxCell id="GkZeD6TET7VPJWkUDvar-5" value="post_discounts_price" style="shape=partialRectangle;top=0;left=0;right=0;bottom=0;html=1;align=left;verticalAlign=bottom;fillColor=none;spacingLeft=34;spacingRight=4;whiteSpace=wrap;overflow=hidden;rotatable=1;points=[[0,0.5],[1,0.5]];portConstraint=eastwest;dropTarget=0;editable=1;movable=1;resizable=1;deletable=1;locked=0;connectable=1;comic=0;enumerate=0;fontStyle=1" vertex="1" parent="aJEdRUJ3gJoqMp5k8vDi-50">
          <mxGeometry y="120" width="180" height="20" as="geometry" />
        </mxCell>
        <mxCell id="GkZeD6TET7VPJWkUDvar-6" value="" style="shape=partialRectangle;top=0;left=0;bottom=0;html=1;fillColor=none;align=left;verticalAlign=top;spacingLeft=4;spacingRight=4;whiteSpace=wrap;overflow=hidden;rotatable=1;points=[];portConstraint=eastwest;part=1;editable=1;movable=1;resizable=1;deletable=1;locked=0;connectable=1;comic=0;enumerate=0;fontStyle=1" vertex="1" connectable="0" parent="GkZeD6TET7VPJWkUDvar-5">
          <mxGeometry width="30" height="20" as="geometry" />
        </mxCell>
      </root>
    </mxGraphModel>
  </diagram>
</mxfile>
